<svg xmlns="http://www.w3.org/2000/svg" xmlns:xlink="http://www.w3.org/1999/xlink" width="359" zoomAndPan="magnify" viewBox="0 0 269.25 104.999996" height="140" preserveAspectRatio="xMidYMid meet" version="1.0"><defs><g/><clipPath id="57480e5a79"><path d="M 224 4 L 243.222656 4 L 243.222656 72 L 224 72 Z M 224 4 " clip-rule="nonzero"/></clipPath><clipPath id="e76cad1a54"><path d="M 1 56 L 15 56 L 15 67.929688 L 1 67.929688 Z M 1 56 " clip-rule="nonzero"/></clipPath><clipPath id="8ead43d491"><rect x="0" width="20" y="0" height="68"/></clipPath><clipPath id="a9e261635a"><rect x="0" width="244" y="0" height="86"/></clipPath></defs><g transform="matrix(1, 0, 0, 1, 21, 6)"><g clip-path="url(#a9e261635a)"><g fill="#fefefe" fill-opacity="1"><g transform="translate(0.715561, 70.540002)"><g><path d="M 0.921875 -0.375 C 1.773438 -0.59375 2.382812 -1.101562 2.75 -1.90625 C 3.125 -2.71875 3.3125 -3.796875 3.3125 -5.140625 L 3.3125 -36.75 C 3.3125 -38.125 3.125 -39.207031 2.75 -40 C 2.382812 -40.800781 1.773438 -41.3125 0.921875 -41.53125 L 0.921875 -41.890625 L 14.921875 -41.890625 L 23.078125 -16.796875 L 28.953125 -41.890625 L 43.109375 -41.890625 L 43.109375 -41.53125 C 42.253906 -41.3125 41.640625 -40.800781 41.265625 -40 C 40.898438 -39.207031 40.71875 -38.125 40.71875 -36.75 L 40.71875 -5.140625 C 40.71875 -3.796875 40.898438 -2.71875 41.265625 -1.90625 C 41.640625 -1.101562 42.253906 -0.59375 43.109375 -0.375 L 43.109375 0 L 26.5625 0 L 26.5625 -0.375 C 27.425781 -0.59375 28.039062 -1.101562 28.40625 -1.90625 C 28.769531 -2.71875 28.953125 -3.796875 28.953125 -5.140625 L 28.953125 -38.296875 L 19.984375 0 L 16.71875 0 L 4.046875 -39.0625 L 4.046875 -31.015625 C 4.046875 -29.035156 4.160156 -26.941406 4.390625 -24.734375 C 4.617188 -22.523438 4.953125 -20.316406 5.390625 -18.109375 C 5.835938 -15.910156 6.367188 -13.800781 6.984375 -11.78125 C 7.597656 -9.757812 8.269531 -7.925781 9 -6.28125 C 9.738281 -4.644531 10.523438 -3.3125 11.359375 -2.28125 C 12.191406 -1.25 13.0625 -0.613281 13.96875 -0.375 L 13.96875 0 L 0.921875 0 Z M 0.921875 -0.375 "/></g></g></g><g fill="#fefefe" fill-opacity="1"><g transform="translate(44.738824, 70.540002)"><g><path d="M 0.375 -26.34375 L 0.375 -26.71875 C 1.300781 -26.71875 2.359375 -26.804688 3.546875 -26.984375 C 4.734375 -27.171875 5.929688 -27.410156 7.140625 -27.703125 C 8.359375 -28.003906 9.488281 -28.320312 10.53125 -28.65625 C 11.570312 -29 12.410156 -29.332031 13.046875 -29.65625 C 13.117188 -29.707031 13.195312 -29.75 13.28125 -29.78125 C 13.363281 -29.820312 13.429688 -29.851562 13.484375 -29.875 L 13.859375 -29.875 L 13.859375 -7.6875 C 13.859375 -7.019531 13.925781 -6.320312 14.0625 -5.59375 C 14.195312 -4.875 14.457031 -4.269531 14.84375 -3.78125 C 15.238281 -3.289062 15.816406 -3.046875 16.578125 -3.046875 C 17.359375 -3.046875 18.023438 -3.269531 18.578125 -3.71875 C 19.128906 -4.175781 19.554688 -4.769531 19.859375 -5.5 C 20.171875 -6.238281 20.328125 -7.023438 20.328125 -7.859375 L 20.328125 -21.5 C 20.328125 -22.644531 20.1875 -23.570312 19.90625 -24.28125 C 19.625 -25 19.289062 -25.519531 18.90625 -25.84375 C 18.53125 -26.175781 18.179688 -26.34375 17.859375 -26.34375 L 17.859375 -26.71875 C 18.785156 -26.71875 19.84375 -26.804688 21.03125 -26.984375 C 22.226562 -27.171875 23.429688 -27.410156 24.640625 -27.703125 C 25.847656 -28.003906 26.972656 -28.320312 28.015625 -28.65625 C 29.054688 -29 29.898438 -29.332031 30.546875 -29.65625 C 30.617188 -29.707031 30.695312 -29.75 30.78125 -29.78125 C 30.863281 -29.820312 30.929688 -29.851562 30.984375 -29.875 L 31.34375 -29.875 L 31.34375 -7.6875 C 31.34375 -6.53125 31.484375 -5.597656 31.765625 -4.890625 C 32.046875 -4.179688 32.382812 -3.660156 32.78125 -3.328125 C 33.175781 -2.992188 33.519531 -2.828125 33.8125 -2.828125 L 33.8125 -2.46875 C 32.875 -2.46875 31.8125 -2.363281 30.625 -2.15625 C 29.4375 -1.945312 28.242188 -1.6875 27.046875 -1.375 C 25.847656 -1.070312 24.726562 -0.753906 23.6875 -0.421875 C 22.644531 -0.0859375 21.789062 0.210938 21.125 0.484375 C 20.957031 0.554688 20.8125 0.628906 20.6875 0.703125 L 20.328125 0.703125 L 20.328125 -4.84375 C 19.859375 -3.863281 19.179688 -2.953125 18.296875 -2.109375 C 17.421875 -1.265625 16.382812 -0.582031 15.1875 -0.0625 C 14 0.445312 12.707031 0.703125 11.3125 0.703125 C 9.457031 0.703125 7.957031 0.378906 6.8125 -0.265625 C 5.675781 -0.921875 4.828125 -1.75 4.265625 -2.75 C 3.703125 -3.757812 3.320312 -4.828125 3.125 -5.953125 C 2.925781 -7.078125 2.828125 -8.117188 2.828125 -9.078125 L 2.828125 -21.5 C 2.828125 -22.644531 2.6875 -23.570312 2.40625 -24.28125 C 2.125 -25 1.789062 -25.519531 1.40625 -25.84375 C 1.03125 -26.175781 0.6875 -26.34375 0.375 -26.34375 Z M 0.375 -26.34375 "/></g></g></g><g fill="#fefefe" fill-opacity="1"><g transform="translate(78.913807, 70.540002)"><g><path d="M 18.1875 -2.828125 C 18.1875 -3.910156 17.882812 -4.84375 17.28125 -5.625 C 16.6875 -6.40625 15.890625 -7.109375 14.890625 -7.734375 C 13.898438 -8.359375 12.8125 -8.960938 11.625 -9.546875 C 10.4375 -10.140625 9.242188 -10.765625 8.046875 -11.421875 C 6.847656 -12.085938 5.75 -12.84375 4.75 -13.6875 C 3.757812 -14.53125 2.960938 -15.539062 2.359375 -16.71875 C 1.765625 -17.894531 1.46875 -19.289062 1.46875 -20.90625 C 1.46875 -22.914062 2.019531 -24.582031 3.125 -25.90625 C 4.226562 -27.226562 5.679688 -28.226562 7.484375 -28.90625 C 9.285156 -29.582031 11.25 -29.921875 13.375 -29.921875 C 15.289062 -29.921875 16.945312 -29.804688 18.34375 -29.578125 C 19.738281 -29.359375 20.960938 -29.25 22.015625 -29.25 C 22.597656 -29.25 23.164062 -29.289062 23.71875 -29.375 C 24.269531 -29.46875 24.707031 -29.648438 25.03125 -29.921875 L 25.390625 -29.921875 L 25.390625 -18.859375 L 25.03125 -18.859375 C 24.6875 -19.953125 24.203125 -21.09375 23.578125 -22.28125 C 22.953125 -23.476562 22.21875 -24.585938 21.375 -25.609375 C 20.53125 -26.640625 19.625 -27.476562 18.65625 -28.125 C 17.6875 -28.78125 16.675781 -29.109375 15.625 -29.109375 C 14.59375 -29.109375 13.691406 -28.8125 12.921875 -28.21875 C 12.148438 -27.632812 11.765625 -26.816406 11.765625 -25.765625 C 11.765625 -24.734375 12.035156 -23.835938 12.578125 -23.078125 C 13.128906 -22.316406 13.859375 -21.628906 14.765625 -21.015625 C 15.679688 -20.410156 16.679688 -19.820312 17.765625 -19.25 C 18.859375 -18.6875 19.945312 -18.09375 21.03125 -17.46875 C 22.125 -16.84375 23.125 -16.125 24.03125 -15.3125 C 24.9375 -14.507812 25.664062 -13.554688 26.21875 -12.453125 C 26.769531 -11.347656 27.046875 -10.050781 27.046875 -8.5625 C 27.046875 -7.070312 26.695312 -5.75 26 -4.59375 C 25.300781 -3.4375 24.363281 -2.46875 23.1875 -1.6875 C 22.007812 -0.90625 20.695312 -0.3125 19.25 0.09375 C 17.8125 0.5 16.359375 0.703125 14.890625 0.703125 C 13.171875 0.703125 11.59375 0.613281 10.15625 0.4375 C 8.726562 0.269531 7.351562 -0.0546875 6.03125 -0.546875 C 4.707031 -1.035156 3.347656 -1.757812 1.953125 -2.71875 L 1.953125 -11.390625 L 2.3125 -11.390625 C 3 -10.015625 3.800781 -8.65625 4.71875 -7.3125 C 5.632812 -5.96875 6.640625 -4.75 7.734375 -3.65625 C 8.828125 -2.5625 9.976562 -1.679688 11.1875 -1.015625 C 12.40625 -0.359375 13.648438 -0.03125 14.921875 -0.03125 C 15.847656 -0.03125 16.625 -0.253906 17.25 -0.703125 C 17.875 -1.160156 18.1875 -1.867188 18.1875 -2.828125 Z M 18.1875 -2.828125 "/></g></g></g><g fill="#fefefe" fill-opacity="1"><g transform="translate(107.429714, 70.540002)"><g><path d="M 16.796875 0.703125 C 14.660156 0.703125 12.664062 0.304688 10.8125 -0.484375 C 8.96875 -1.285156 7.347656 -2.382812 5.953125 -3.78125 C 4.554688 -5.175781 3.457031 -6.796875 2.65625 -8.640625 C 1.863281 -10.492188 1.46875 -12.476562 1.46875 -14.59375 C 1.46875 -16.695312 1.820312 -18.671875 2.53125 -20.515625 C 3.238281 -22.367188 4.242188 -23.992188 5.546875 -25.390625 C 6.847656 -26.785156 8.382812 -27.878906 10.15625 -28.671875 C 11.9375 -29.472656 13.890625 -29.875 16.015625 -29.875 C 18.816406 -29.875 21.179688 -29.445312 23.109375 -28.59375 C 25.046875 -27.738281 26.519531 -26.59375 27.53125 -25.15625 C 28.550781 -23.71875 29.0625 -22.128906 29.0625 -20.390625 C 29.0625 -17.972656 28.066406 -16.140625 26.078125 -14.890625 C 24.097656 -13.640625 20.894531 -13.015625 16.46875 -13.015625 L 13.15625 -13.015625 C 14.3125 -11.203125 15.8125 -9.816406 17.65625 -8.859375 C 19.507812 -7.898438 21.597656 -7.421875 23.921875 -7.421875 C 24.753906 -7.421875 25.550781 -7.5 26.3125 -7.65625 C 27.070312 -7.820312 27.832031 -8.0625 28.59375 -8.375 C 28.59375 -7.101562 28.265625 -5.914062 27.609375 -4.8125 C 26.960938 -3.707031 26.082031 -2.738281 24.96875 -1.90625 C 23.851562 -1.070312 22.59375 -0.429688 21.1875 0.015625 C 19.78125 0.472656 18.316406 0.703125 16.796875 0.703125 Z M 12.75 -13.703125 L 12.96875 -13.703125 C 14.195312 -13.703125 15.226562 -13.945312 16.0625 -14.4375 C 16.894531 -14.925781 17.566406 -15.582031 18.078125 -16.40625 C 18.597656 -17.226562 18.96875 -18.128906 19.1875 -19.109375 C 19.40625 -20.085938 19.515625 -21.054688 19.515625 -22.015625 C 19.515625 -22.796875 19.429688 -23.597656 19.265625 -24.421875 C 19.109375 -25.242188 18.859375 -26.003906 18.515625 -26.703125 C 18.171875 -27.398438 17.734375 -27.96875 17.203125 -28.40625 C 16.679688 -28.84375 16.066406 -29.0625 15.359375 -29.0625 C 14.523438 -29.0625 13.820312 -28.820312 13.25 -28.34375 C 12.675781 -27.875 12.21875 -27.257812 11.875 -26.5 C 11.53125 -25.738281 11.285156 -24.945312 11.140625 -24.125 C 10.992188 -23.300781 10.921875 -22.535156 10.921875 -21.828125 C 10.921875 -20.210938 11.078125 -18.722656 11.390625 -17.359375 C 11.710938 -16.003906 12.164062 -14.785156 12.75 -13.703125 Z M 12.75 -13.703125 "/></g></g></g><g fill="#fefefe" fill-opacity="1"><g transform="translate(136.864297, 70.540002)"><g><path d="M 0.375 -26.34375 L 0.375 -26.71875 C 1.300781 -26.71875 2.359375 -26.804688 3.546875 -26.984375 C 4.734375 -27.171875 5.929688 -27.410156 7.140625 -27.703125 C 8.359375 -28.003906 9.488281 -28.320312 10.53125 -28.65625 C 11.570312 -29 12.410156 -29.332031 13.046875 -29.65625 C 13.117188 -29.707031 13.195312 -29.75 13.28125 -29.78125 C 13.363281 -29.820312 13.429688 -29.851562 13.484375 -29.875 L 13.859375 -29.875 L 13.859375 -7.6875 C 13.859375 -7.019531 13.925781 -6.320312 14.0625 -5.59375 C 14.195312 -4.875 14.457031 -4.269531 14.84375 -3.78125 C 15.238281 -3.289062 15.816406 -3.046875 16.578125 -3.046875 C 17.359375 -3.046875 18.023438 -3.269531 18.578125 -3.71875 C 19.128906 -4.175781 19.554688 -4.769531 19.859375 -5.5 C 20.171875 -6.238281 20.328125 -7.023438 20.328125 -7.859375 L 20.328125 -21.5 C 20.328125 -22.644531 20.1875 -23.570312 19.90625 -24.28125 C 19.625 -25 19.289062 -25.519531 18.90625 -25.84375 C 18.53125 -26.175781 18.179688 -26.34375 17.859375 -26.34375 L 17.859375 -26.71875 C 18.785156 -26.71875 19.84375 -26.804688 21.03125 -26.984375 C 22.226562 -27.171875 23.429688 -27.410156 24.640625 -27.703125 C 25.847656 -28.003906 26.972656 -28.320312 28.015625 -28.65625 C 29.054688 -29 29.898438 -29.332031 30.546875 -29.65625 C 30.617188 -29.707031 30.695312 -29.75 30.78125 -29.78125 C 30.863281 -29.820312 30.929688 -29.851562 30.984375 -29.875 L 31.34375 -29.875 L 31.34375 -7.6875 C 31.34375 -6.53125 31.484375 -5.597656 31.765625 -4.890625 C 32.046875 -4.179688 32.382812 -3.660156 32.78125 -3.328125 C 33.175781 -2.992188 33.519531 -2.828125 33.8125 -2.828125 L 33.8125 -2.46875 C 32.875 -2.46875 31.8125 -2.363281 30.625 -2.15625 C 29.4375 -1.945312 28.242188 -1.6875 27.046875 -1.375 C 25.847656 -1.070312 24.726562 -0.753906 23.6875 -0.421875 C 22.644531 -0.0859375 21.789062 0.210938 21.125 0.484375 C 20.957031 0.554688 20.8125 0.628906 20.6875 0.703125 L 20.328125 0.703125 L 20.328125 -4.84375 C 19.859375 -3.863281 19.179688 -2.953125 18.296875 -2.109375 C 17.421875 -1.265625 16.382812 -0.582031 15.1875 -0.0625 C 14 0.445312 12.707031 0.703125 11.3125 0.703125 C 9.457031 0.703125 7.957031 0.378906 6.8125 -0.265625 C 5.675781 -0.921875 4.828125 -1.75 4.265625 -2.75 C 3.703125 -3.757812 3.320312 -4.828125 3.125 -5.953125 C 2.925781 -7.078125 2.828125 -8.117188 2.828125 -9.078125 L 2.828125 -21.5 C 2.828125 -22.644531 2.6875 -23.570312 2.40625 -24.28125 C 2.125 -25 1.789062 -25.519531 1.40625 -25.84375 C 1.03125 -26.175781 0.6875 -26.34375 0.375 -26.34375 Z M 0.375 -26.34375 "/></g></g></g><g fill="#fefefe" fill-opacity="1"><g transform="translate(171.039293, 70.540002)"><g><path d="M 0.375 -26.390625 L 0.375 -26.75 C 1.300781 -26.75 2.359375 -26.851562 3.546875 -27.0625 C 4.734375 -27.269531 5.925781 -27.523438 7.125 -27.828125 C 8.332031 -28.140625 9.453125 -28.46875 10.484375 -28.8125 C 11.523438 -29.15625 12.378906 -29.445312 13.046875 -29.6875 C 13.242188 -29.757812 13.390625 -29.835938 13.484375 -29.921875 L 13.859375 -29.921875 L 13.859375 -24.359375 C 14.316406 -25.335938 14.988281 -26.25 15.875 -27.09375 C 16.757812 -27.945312 17.796875 -28.628906 18.984375 -29.140625 C 20.171875 -29.660156 21.460938 -29.921875 22.859375 -29.921875 C 24.671875 -29.921875 26.128906 -29.617188 27.234375 -29.015625 C 28.335938 -28.410156 29.179688 -27.632812 29.765625 -26.6875 C 30.359375 -25.75 30.773438 -24.753906 31.015625 -23.703125 C 31.410156 -24.785156 32.046875 -25.796875 32.921875 -26.734375 C 33.804688 -27.679688 34.878906 -28.445312 36.140625 -29.03125 C 37.398438 -29.625 38.78125 -29.921875 40.28125 -29.921875 C 42.164062 -29.921875 43.671875 -29.59375 44.796875 -28.9375 C 45.921875 -28.289062 46.765625 -27.460938 47.328125 -26.453125 C 47.890625 -25.453125 48.269531 -24.390625 48.46875 -23.265625 C 48.664062 -22.140625 48.765625 -21.097656 48.765625 -20.140625 L 48.765625 -5.140625 C 48.765625 -3.796875 48.945312 -2.71875 49.3125 -1.90625 C 49.6875 -1.101562 50.300781 -0.59375 51.15625 -0.375 L 51.15625 0 L 35.359375 0 L 35.359375 -0.375 C 36.210938 -0.59375 36.820312 -1.101562 37.1875 -1.90625 C 37.5625 -2.71875 37.75 -3.796875 37.75 -5.140625 L 37.75 -21.53125 C 37.75 -22.21875 37.679688 -22.914062 37.546875 -23.625 C 37.410156 -24.34375 37.148438 -24.945312 36.765625 -25.4375 C 36.390625 -25.925781 35.804688 -26.171875 35.015625 -26.171875 C 34.265625 -26.171875 33.613281 -25.941406 33.0625 -25.484375 C 32.507812 -25.035156 32.078125 -24.445312 31.765625 -23.71875 C 31.460938 -23 31.3125 -22.222656 31.3125 -21.390625 C 31.3125 -20.046875 31.3125 -18.566406 31.3125 -16.953125 C 31.3125 -15.347656 31.316406 -13.757812 31.328125 -12.1875 C 31.335938 -10.625 31.34375 -9.21875 31.34375 -7.96875 C 31.34375 -6.71875 31.34375 -5.773438 31.34375 -5.140625 C 31.34375 -3.796875 31.523438 -2.71875 31.890625 -1.90625 C 32.265625 -1.101562 32.878906 -0.59375 33.734375 -0.375 L 33.734375 0 L 17.9375 0 L 17.9375 -0.375 C 18.789062 -0.59375 19.398438 -1.101562 19.765625 -1.90625 C 20.140625 -2.71875 20.328125 -3.796875 20.328125 -5.140625 L 20.328125 -21.53125 C 20.328125 -22.21875 20.257812 -22.914062 20.125 -23.625 C 19.988281 -24.34375 19.726562 -24.945312 19.34375 -25.4375 C 18.96875 -25.925781 18.390625 -26.171875 17.609375 -26.171875 C 16.847656 -26.171875 16.1875 -25.941406 15.625 -25.484375 C 15.0625 -25.035156 14.625 -24.441406 14.3125 -23.703125 C 14.007812 -22.960938 13.859375 -22.179688 13.859375 -21.359375 L 13.859375 -5.140625 C 13.859375 -3.796875 14.039062 -2.71875 14.40625 -1.90625 C 14.769531 -1.101562 15.382812 -0.59375 16.25 -0.375 L 16.25 0 L 0.4375 0 L 0.4375 -0.375 C 1.300781 -0.59375 1.914062 -1.101562 2.28125 -1.90625 C 2.644531 -2.71875 2.828125 -3.796875 2.828125 -5.140625 L 2.828125 -21.53125 C 2.828125 -22.6875 2.6875 -23.617188 2.40625 -24.328125 C 2.125 -25.035156 1.789062 -25.554688 1.40625 -25.890625 C 1.03125 -26.222656 0.6875 -26.390625 0.375 -26.390625 Z M 0.375 -26.390625 "/></g></g></g><g fill="#fefefe" fill-opacity="1"><g transform="translate(2.376456, 26.261069)"><g><path d="M 0.53125 -23.75 L 0.53125 -23.953125 L 7.375 -23.953125 L 17.34375 -6.875 L 17.34375 -8.234375 C 17.34375 -9.273438 17.269531 -10.367188 17.125 -11.515625 C 16.988281 -12.660156 16.789062 -13.804688 16.53125 -14.953125 C 16.28125 -16.109375 15.988281 -17.203125 15.65625 -18.234375 C 15.320312 -19.265625 14.945312 -20.1875 14.53125 -21 C 14.113281 -21.820312 13.679688 -22.472656 13.234375 -22.953125 C 12.785156 -23.441406 12.332031 -23.707031 11.875 -23.75 L 11.875 -23.953125 L 19.125 -23.953125 L 19.125 -23.75 C 18.632812 -23.625 18.285156 -23.332031 18.078125 -22.875 C 17.867188 -22.414062 17.765625 -21.796875 17.765625 -21.015625 L 17.765625 -2.9375 C 17.765625 -2.164062 17.867188 -1.550781 18.078125 -1.09375 C 18.285156 -0.632812 18.632812 -0.335938 19.125 -0.203125 L 19.125 0 L 13.296875 0 L 2.3125 -18.875 L 2.3125 -17.734375 C 2.3125 -16.597656 2.378906 -15.398438 2.515625 -14.140625 C 2.648438 -12.878906 2.84375 -11.617188 3.09375 -10.359375 C 3.34375 -9.097656 3.640625 -7.890625 3.984375 -6.734375 C 4.335938 -5.578125 4.722656 -4.53125 5.140625 -3.59375 C 5.566406 -2.65625 6.015625 -1.890625 6.484375 -1.296875 C 6.960938 -0.710938 7.460938 -0.347656 7.984375 -0.203125 L 7.984375 0 L 0.53125 0 L 0.53125 -0.203125 C 1.019531 -0.335938 1.367188 -0.632812 1.578125 -1.09375 C 1.785156 -1.550781 1.890625 -2.164062 1.890625 -2.9375 L 1.890625 -21.015625 C 1.890625 -21.796875 1.785156 -22.414062 1.578125 -22.875 C 1.367188 -23.332031 1.019531 -23.625 0.53125 -23.75 Z M 0.53125 -23.75 "/></g></g></g><g fill="#fefefe" fill-opacity="1"><g transform="translate(22.024508, 26.261069)"><g><path d="M 0.84375 -3.96875 C 0.84375 -4.894531 1 -5.6875 1.3125 -6.34375 C 1.625 -7 2.035156 -7.550781 2.546875 -8 C 3.066406 -8.445312 3.632812 -8.816406 4.25 -9.109375 C 4.863281 -9.410156 5.484375 -9.660156 6.109375 -9.859375 C 6.734375 -10.066406 7.300781 -10.25 7.8125 -10.40625 C 8.320312 -10.570312 8.734375 -10.75 9.046875 -10.9375 C 9.359375 -11.125 9.515625 -11.351562 9.515625 -11.625 C 9.515625 -11.90625 9.390625 -12.085938 9.140625 -12.171875 C 8.898438 -12.265625 8.675781 -12.3125 8.46875 -12.3125 C 8.070312 -12.3125 7.726562 -12.21875 7.4375 -12.03125 C 7.144531 -11.84375 6.859375 -11.628906 6.578125 -11.390625 C 6.296875 -11.148438 5.976562 -10.9375 5.625 -10.75 C 5.28125 -10.5625 4.863281 -10.46875 4.375 -10.46875 C 3.613281 -10.46875 3.003906 -10.703125 2.546875 -11.171875 C 2.097656 -11.640625 1.875 -12.195312 1.875 -12.84375 C 1.875 -13.332031 2 -13.820312 2.25 -14.3125 C 2.5 -14.8125 2.882812 -15.269531 3.40625 -15.6875 C 3.9375 -16.113281 4.613281 -16.457031 5.4375 -16.71875 C 6.269531 -16.976562 7.257812 -17.109375 8.40625 -17.109375 C 9.71875 -17.109375 10.835938 -16.9375 11.765625 -16.59375 C 12.691406 -16.257812 13.453125 -15.816406 14.046875 -15.265625 C 14.640625 -14.722656 15.101562 -14.128906 15.4375 -13.484375 C 15.78125 -12.847656 16.015625 -12.21875 16.140625 -11.59375 C 16.273438 -10.976562 16.34375 -10.441406 16.34375 -9.984375 L 16.34375 -4.078125 C 16.34375 -3.296875 16.457031 -2.628906 16.6875 -2.078125 C 16.925781 -1.535156 17.347656 -1.265625 17.953125 -1.265625 L 17.953125 -1.046875 C 17.390625 -0.722656 16.742188 -0.398438 16.015625 -0.078125 C 15.285156 0.242188 14.421875 0.40625 13.421875 0.40625 C 12.671875 0.40625 12.039062 0.21875 11.53125 -0.15625 C 11.03125 -0.539062 10.644531 -1.023438 10.375 -1.609375 C 10.113281 -2.191406 9.960938 -2.785156 9.921875 -3.390625 C 9.492188 -2.066406 8.875 -1.101562 8.0625 -0.5 C 7.25 0.101562 6.285156 0.40625 5.171875 0.40625 C 4.410156 0.40625 3.703125 0.226562 3.046875 -0.125 C 2.390625 -0.488281 1.859375 -0.992188 1.453125 -1.640625 C 1.046875 -2.296875 0.84375 -3.070312 0.84375 -3.96875 Z M 7.125 -5.71875 C 7.125 -5.34375 7.179688 -4.96875 7.296875 -4.59375 C 7.421875 -4.21875 7.601562 -3.910156 7.84375 -3.671875 C 8.09375 -3.441406 8.394531 -3.328125 8.75 -3.328125 C 9.019531 -3.328125 9.273438 -3.414062 9.515625 -3.59375 C 9.765625 -3.769531 9.890625 -3.914062 9.890625 -4.03125 L 9.890625 -12.59375 C 9.890625 -12.882812 9.890625 -13.265625 9.890625 -13.734375 C 9.890625 -14.203125 9.851562 -14.664062 9.78125 -15.125 C 9.707031 -15.59375 9.5625 -15.988281 9.34375 -16.3125 C 9.132812 -16.632812 8.820312 -16.796875 8.40625 -16.796875 C 8.113281 -16.796875 7.890625 -16.664062 7.734375 -16.40625 C 7.578125 -16.15625 7.46875 -15.878906 7.40625 -15.578125 C 7.351562 -15.273438 7.328125 -15.050781 7.328125 -14.90625 C 7.328125 -14.28125 7.476562 -13.816406 7.78125 -13.515625 C 8.082031 -13.222656 8.40625 -13 8.75 -12.84375 C 9.039062 -12.695312 9.300781 -12.550781 9.53125 -12.40625 C 9.769531 -12.257812 9.890625 -12.019531 9.890625 -11.6875 C 9.890625 -11.351562 9.796875 -11.085938 9.609375 -10.890625 C 9.421875 -10.703125 9.191406 -10.507812 8.921875 -10.3125 C 8.648438 -10.125 8.375 -9.859375 8.09375 -9.515625 C 7.820312 -9.179688 7.59375 -8.71875 7.40625 -8.125 C 7.21875 -7.53125 7.125 -6.726562 7.125 -5.71875 Z M 7.125 -5.71875 "/></g></g></g><g fill="#fefefe" fill-opacity="1"><g transform="translate(39.318997, 26.261069)"><g><path d="M 1.40625 -16.328125 L 0 -16.328125 L 0 -16.734375 C 0.53125 -16.734375 1.140625 -16.8125 1.828125 -16.96875 C 2.523438 -17.132812 3.226562 -17.351562 3.9375 -17.625 C 4.65625 -17.90625 5.328125 -18.222656 5.953125 -18.578125 C 6.578125 -18.929688 7.09375 -19.296875 7.5 -19.671875 L 7.71875 -19.671875 L 7.71875 -16.734375 L 9.765625 -16.734375 L 9.765625 -16.328125 L 7.71875 -16.328125 L 7.71875 -7.671875 C 7.71875 -6.304688 7.769531 -5.1875 7.875 -4.3125 C 7.988281 -3.4375 8.203125 -2.789062 8.515625 -2.375 C 8.835938 -1.96875 9.289062 -1.765625 9.875 -1.765625 C 9.875 -1.222656 9.597656 -0.722656 9.046875 -0.265625 C 8.503906 0.191406 7.726562 0.421875 6.71875 0.421875 C 5.5625 0.421875 4.628906 0.191406 3.921875 -0.265625 C 3.222656 -0.734375 2.691406 -1.359375 2.328125 -2.140625 C 1.960938 -2.929688 1.71875 -3.804688 1.59375 -4.765625 C 1.46875 -5.722656 1.40625 -6.691406 1.40625 -7.671875 Z M 1.40625 -16.328125 "/></g></g></g><g fill="#fefefe" fill-opacity="1"><g transform="translate(48.670211, 26.261069)"><g><path d="M 0.203125 -15.0625 L 0.203125 -15.28125 C 0.742188 -15.28125 1.351562 -15.332031 2.03125 -15.4375 C 2.707031 -15.539062 3.390625 -15.675781 4.078125 -15.84375 C 4.773438 -16.007812 5.421875 -16.191406 6.015625 -16.390625 C 6.617188 -16.585938 7.097656 -16.773438 7.453125 -16.953125 C 7.503906 -16.984375 7.550781 -17.007812 7.59375 -17.03125 C 7.644531 -17.050781 7.6875 -17.066406 7.71875 -17.078125 L 7.921875 -17.078125 L 7.921875 -4.390625 C 7.921875 -4.015625 7.957031 -3.617188 8.03125 -3.203125 C 8.113281 -2.785156 8.265625 -2.4375 8.484375 -2.15625 C 8.710938 -1.882812 9.046875 -1.75 9.484375 -1.75 C 9.929688 -1.75 10.3125 -1.875 10.625 -2.125 C 10.9375 -2.382812 11.179688 -2.722656 11.359375 -3.140625 C 11.535156 -3.566406 11.625 -4.019531 11.625 -4.5 L 11.625 -12.296875 C 11.625 -12.953125 11.539062 -13.484375 11.375 -13.890625 C 11.21875 -14.296875 11.03125 -14.59375 10.8125 -14.78125 C 10.59375 -14.96875 10.394531 -15.0625 10.21875 -15.0625 L 10.21875 -15.28125 C 10.75 -15.28125 11.351562 -15.332031 12.03125 -15.4375 C 12.707031 -15.539062 13.390625 -15.675781 14.078125 -15.84375 C 14.773438 -16.007812 15.421875 -16.191406 16.015625 -16.390625 C 16.617188 -16.585938 17.101562 -16.773438 17.46875 -16.953125 C 17.507812 -16.984375 17.550781 -17.007812 17.59375 -17.03125 C 17.644531 -17.050781 17.6875 -17.066406 17.71875 -17.078125 L 17.921875 -17.078125 L 17.921875 -4.390625 C 17.921875 -3.734375 18 -3.203125 18.15625 -2.796875 C 18.320312 -2.390625 18.515625 -2.09375 18.734375 -1.90625 C 18.960938 -1.71875 19.160156 -1.625 19.328125 -1.625 L 19.328125 -1.40625 C 18.796875 -1.40625 18.191406 -1.34375 17.515625 -1.21875 C 16.835938 -1.101562 16.15625 -0.957031 15.46875 -0.78125 C 14.78125 -0.613281 14.140625 -0.429688 13.546875 -0.234375 C 12.953125 -0.046875 12.460938 0.117188 12.078125 0.265625 C 11.984375 0.316406 11.898438 0.363281 11.828125 0.40625 L 11.625 0.40625 L 11.625 -2.78125 C 11.351562 -2.21875 10.960938 -1.691406 10.453125 -1.203125 C 9.953125 -0.722656 9.363281 -0.332031 8.6875 -0.03125 C 8.007812 0.257812 7.269531 0.40625 6.46875 0.40625 C 5.40625 0.40625 4.546875 0.21875 3.890625 -0.15625 C 3.242188 -0.53125 2.757812 -1.003906 2.4375 -1.578125 C 2.113281 -2.148438 1.894531 -2.757812 1.78125 -3.40625 C 1.675781 -4.050781 1.625 -4.644531 1.625 -5.1875 L 1.625 -12.296875 C 1.625 -12.953125 1.539062 -13.484375 1.375 -13.890625 C 1.21875 -14.296875 1.03125 -14.59375 0.8125 -14.78125 C 0.59375 -14.96875 0.390625 -15.0625 0.203125 -15.0625 Z M 0.203125 -15.0625 "/></g></g></g><g fill="#fefefe" fill-opacity="1"><g transform="translate(68.213196, 26.261069)"><g><path d="M 0.203125 -15.09375 L 0.203125 -15.296875 C 0.785156 -15.296875 1.4375 -15.359375 2.15625 -15.484375 C 2.875 -15.609375 3.597656 -15.765625 4.328125 -15.953125 C 5.054688 -16.148438 5.722656 -16.347656 6.328125 -16.546875 C 6.929688 -16.753906 7.394531 -16.941406 7.71875 -17.109375 L 7.921875 -17.109375 L 7.921875 -14.140625 C 8.085938 -14.523438 8.359375 -14.945312 8.734375 -15.40625 C 9.117188 -15.863281 9.625 -16.257812 10.25 -16.59375 C 10.875 -16.9375 11.613281 -17.109375 12.46875 -17.109375 C 13.488281 -17.109375 14.332031 -16.890625 15 -16.453125 C 15.664062 -16.015625 16.160156 -15.457031 16.484375 -14.78125 C 16.816406 -14.113281 16.984375 -13.414062 16.984375 -12.6875 C 16.984375 -11.5 16.648438 -10.554688 15.984375 -9.859375 C 15.328125 -9.160156 14.460938 -8.8125 13.390625 -8.8125 C 12.328125 -8.8125 11.460938 -9.140625 10.796875 -9.796875 C 10.140625 -10.453125 9.8125 -11.3125 9.8125 -12.375 C 9.8125 -12.800781 9.863281 -13.128906 9.96875 -13.359375 C 10.070312 -13.597656 10.175781 -13.804688 10.28125 -13.984375 C 10.382812 -14.171875 10.4375 -14.390625 10.4375 -14.640625 C 10.4375 -14.953125 10.269531 -15.109375 9.9375 -15.109375 C 9.695312 -15.109375 9.414062 -15.003906 9.09375 -14.796875 C 8.769531 -14.597656 8.492188 -14.304688 8.265625 -13.921875 C 8.035156 -13.546875 7.921875 -13.082031 7.921875 -12.53125 L 7.921875 -2.9375 C 7.921875 -2.164062 8.023438 -1.550781 8.234375 -1.09375 C 8.441406 -0.632812 8.789062 -0.335938 9.28125 -0.203125 L 9.28125 0 L 0.25 0 L 0.25 -0.203125 C 0.738281 -0.335938 1.085938 -0.632812 1.296875 -1.09375 C 1.515625 -1.550781 1.625 -2.164062 1.625 -2.9375 L 1.625 -12.3125 C 1.625 -12.96875 1.539062 -13.5 1.375 -13.90625 C 1.21875 -14.3125 1.03125 -14.609375 0.8125 -14.796875 C 0.59375 -14.992188 0.390625 -15.09375 0.203125 -15.09375 Z M 0.203125 -15.09375 "/></g></g></g><g fill="#fefefe" fill-opacity="1"><g transform="translate(85.402614, 26.261069)"><g><path d="M 0.203125 -22.546875 C 0.742188 -22.546875 1.351562 -22.601562 2.03125 -22.71875 C 2.707031 -22.84375 3.390625 -22.992188 4.078125 -23.171875 C 4.765625 -23.347656 5.40625 -23.53125 6 -23.71875 C 6.59375 -23.914062 7.078125 -24.085938 7.453125 -24.234375 C 7.566406 -24.273438 7.65625 -24.316406 7.71875 -24.359375 L 7.921875 -24.359375 L 7.921875 -13.9375 C 8.191406 -14.5 8.578125 -15.019531 9.078125 -15.5 C 9.578125 -15.976562 10.164062 -16.363281 10.84375 -16.65625 C 11.53125 -16.957031 12.273438 -17.109375 13.078125 -17.109375 C 14.148438 -17.109375 15.007812 -16.921875 15.65625 -16.546875 C 16.300781 -16.179688 16.785156 -15.707031 17.109375 -15.125 C 17.429688 -14.550781 17.644531 -13.941406 17.75 -13.296875 C 17.863281 -12.660156 17.921875 -12.066406 17.921875 -11.515625 L 17.921875 -2.9375 C 17.921875 -2.164062 18.023438 -1.550781 18.234375 -1.09375 C 18.453125 -0.632812 18.804688 -0.335938 19.296875 -0.203125 L 19.296875 0 L 10.25 0 L 10.25 -0.203125 C 10.738281 -0.335938 11.085938 -0.632812 11.296875 -1.09375 C 11.515625 -1.550781 11.625 -2.164062 11.625 -2.9375 L 11.625 -12.3125 C 11.625 -12.707031 11.582031 -13.109375 11.5 -13.515625 C 11.425781 -13.921875 11.28125 -14.265625 11.0625 -14.546875 C 10.84375 -14.828125 10.507812 -14.96875 10.0625 -14.96875 C 9.632812 -14.96875 9.257812 -14.835938 8.9375 -14.578125 C 8.613281 -14.316406 8.363281 -13.972656 8.1875 -13.546875 C 8.007812 -13.128906 7.921875 -12.679688 7.921875 -12.203125 L 7.921875 -2.9375 C 7.921875 -2.164062 8.023438 -1.550781 8.234375 -1.09375 C 8.441406 -0.632812 8.789062 -0.335938 9.28125 -0.203125 L 9.28125 0 L 0.25 0 L 0.25 -0.203125 C 0.738281 -0.335938 1.085938 -0.632812 1.296875 -1.09375 C 1.515625 -1.550781 1.625 -2.164062 1.625 -2.9375 L 1.625 -19.5625 C 1.625 -20.21875 1.539062 -20.75 1.375 -21.15625 C 1.21875 -21.5625 1.03125 -21.859375 0.8125 -22.046875 C 0.59375 -22.242188 0.390625 -22.34375 0.203125 -22.34375 Z M 0.203125 -22.546875 "/></g></g></g><g fill="#fefefe" fill-opacity="1"><g transform="translate(104.903569, 26.261069)"><g><path d="M 0.203125 -15.296875 C 0.742188 -15.296875 1.351562 -15.351562 2.03125 -15.46875 C 2.707031 -15.59375 3.390625 -15.742188 4.078125 -15.921875 C 4.765625 -16.097656 5.40625 -16.28125 6 -16.46875 C 6.59375 -16.664062 7.078125 -16.835938 7.453125 -16.984375 C 7.566406 -17.023438 7.65625 -17.066406 7.71875 -17.109375 L 7.921875 -17.109375 L 7.921875 -2.9375 C 7.921875 -2.164062 8.023438 -1.550781 8.234375 -1.09375 C 8.441406 -0.632812 8.789062 -0.335938 9.28125 -0.203125 L 9.28125 0 L 0.25 0 L 0.25 -0.203125 C 0.738281 -0.335938 1.085938 -0.632812 1.296875 -1.09375 C 1.515625 -1.550781 1.625 -2.164062 1.625 -2.9375 L 1.625 -12.3125 C 1.625 -12.96875 1.539062 -13.5 1.375 -13.90625 C 1.21875 -14.3125 1.03125 -14.609375 0.8125 -14.796875 C 0.59375 -14.992188 0.390625 -15.09375 0.203125 -15.09375 Z M 0.875 -21.3125 C 0.875 -22.019531 1.050781 -22.664062 1.40625 -23.25 C 1.757812 -23.832031 2.226562 -24.296875 2.8125 -24.640625 C 3.40625 -24.992188 4.050781 -25.171875 4.75 -25.171875 C 5.46875 -25.171875 6.117188 -24.992188 6.703125 -24.640625 C 7.296875 -24.296875 7.765625 -23.832031 8.109375 -23.25 C 8.460938 -22.664062 8.640625 -22.019531 8.640625 -21.3125 C 8.640625 -20.59375 8.460938 -19.9375 8.109375 -19.34375 C 7.765625 -18.757812 7.296875 -18.289062 6.703125 -17.9375 C 6.117188 -17.59375 5.46875 -17.421875 4.75 -17.421875 C 4.050781 -17.421875 3.40625 -17.59375 2.8125 -17.9375 C 2.226562 -18.289062 1.757812 -18.757812 1.40625 -19.34375 C 1.050781 -19.9375 0.875 -20.59375 0.875 -21.3125 Z M 0.875 -21.3125 "/></g></g></g><g fill="#fefefe" fill-opacity="1"><g transform="translate(114.401884, 26.261069)"><g><path d="M 10.40625 -1.625 C 10.40625 -2.238281 10.234375 -2.769531 9.890625 -3.21875 C 9.546875 -3.664062 9.085938 -4.066406 8.515625 -4.421875 C 7.953125 -4.773438 7.328125 -5.117188 6.640625 -5.453125 C 5.960938 -5.796875 5.28125 -6.15625 4.59375 -6.53125 C 3.914062 -6.914062 3.289062 -7.347656 2.71875 -7.828125 C 2.15625 -8.304688 1.703125 -8.882812 1.359375 -9.5625 C 1.015625 -10.238281 0.84375 -11.035156 0.84375 -11.953125 C 0.84375 -13.109375 1.15625 -14.0625 1.78125 -14.8125 C 2.414062 -15.570312 3.25 -16.144531 4.28125 -16.53125 C 5.3125 -16.914062 6.4375 -17.109375 7.65625 -17.109375 C 8.738281 -17.109375 9.679688 -17.046875 10.484375 -16.921875 C 11.285156 -16.796875 11.988281 -16.734375 12.59375 -16.734375 C 12.925781 -16.734375 13.25 -16.753906 13.5625 -16.796875 C 13.875 -16.847656 14.125 -16.953125 14.3125 -17.109375 L 14.515625 -17.109375 L 14.515625 -10.78125 L 14.3125 -10.78125 C 14.113281 -11.414062 13.835938 -12.070312 13.484375 -12.75 C 13.128906 -13.425781 12.707031 -14.054688 12.21875 -14.640625 C 11.738281 -15.234375 11.21875 -15.710938 10.65625 -16.078125 C 10.101562 -16.453125 9.53125 -16.640625 8.9375 -16.640625 C 8.34375 -16.640625 7.820312 -16.472656 7.375 -16.140625 C 6.9375 -15.804688 6.71875 -15.335938 6.71875 -14.734375 C 6.71875 -14.140625 6.875 -13.625 7.1875 -13.1875 C 7.507812 -12.757812 7.925781 -12.367188 8.4375 -12.015625 C 8.957031 -11.671875 9.53125 -11.335938 10.15625 -11.015625 C 10.78125 -10.691406 11.40625 -10.347656 12.03125 -9.984375 C 12.65625 -9.628906 13.222656 -9.21875 13.734375 -8.75 C 14.253906 -8.289062 14.671875 -7.742188 14.984375 -7.109375 C 15.304688 -6.484375 15.46875 -5.742188 15.46875 -4.890625 C 15.46875 -4.035156 15.265625 -3.28125 14.859375 -2.625 C 14.460938 -1.96875 13.925781 -1.414062 13.25 -0.96875 C 12.582031 -0.519531 11.832031 -0.179688 11 0.046875 C 10.175781 0.285156 9.347656 0.40625 8.515625 0.40625 C 7.535156 0.40625 6.632812 0.351562 5.8125 0.25 C 4.988281 0.15625 4.195312 -0.03125 3.4375 -0.3125 C 2.6875 -0.59375 1.910156 -1.007812 1.109375 -1.5625 L 1.109375 -6.515625 L 1.328125 -6.515625 C 1.710938 -5.734375 2.164062 -4.957031 2.6875 -4.1875 C 3.21875 -3.414062 3.796875 -2.71875 4.421875 -2.09375 C 5.046875 -1.46875 5.703125 -0.960938 6.390625 -0.578125 C 7.085938 -0.203125 7.800781 -0.015625 8.53125 -0.015625 C 9.0625 -0.015625 9.503906 -0.144531 9.859375 -0.40625 C 10.222656 -0.664062 10.40625 -1.070312 10.40625 -1.625 Z M 10.40625 -1.625 "/></g></g></g><g fill="#fefefe" fill-opacity="1"><g transform="translate(130.708718, 26.261069)"><g><path d="M 1.40625 -16.328125 L 0 -16.328125 L 0 -16.734375 C 0.53125 -16.734375 1.140625 -16.8125 1.828125 -16.96875 C 2.523438 -17.132812 3.226562 -17.351562 3.9375 -17.625 C 4.65625 -17.90625 5.328125 -18.222656 5.953125 -18.578125 C 6.578125 -18.929688 7.09375 -19.296875 7.5 -19.671875 L 7.71875 -19.671875 L 7.71875 -16.734375 L 9.765625 -16.734375 L 9.765625 -16.328125 L 7.71875 -16.328125 L 7.71875 -7.671875 C 7.71875 -6.304688 7.769531 -5.1875 7.875 -4.3125 C 7.988281 -3.4375 8.203125 -2.789062 8.515625 -2.375 C 8.835938 -1.96875 9.289062 -1.765625 9.875 -1.765625 C 9.875 -1.222656 9.597656 -0.722656 9.046875 -0.265625 C 8.503906 0.191406 7.726562 0.421875 6.71875 0.421875 C 5.5625 0.421875 4.628906 0.191406 3.921875 -0.265625 C 3.222656 -0.734375 2.691406 -1.359375 2.328125 -2.140625 C 1.960938 -2.929688 1.71875 -3.804688 1.59375 -4.765625 C 1.46875 -5.722656 1.40625 -6.691406 1.40625 -7.671875 Z M 1.40625 -16.328125 "/></g></g></g><g fill="#fefefe" fill-opacity="1"><g transform="translate(140.059936, 26.261069)"><g><path d="M 9.265625 0.40625 C 8.109375 0.40625 7.019531 0.207031 6 -0.1875 C 4.976562 -0.582031 4.078125 -1.15625 3.296875 -1.90625 C 2.523438 -2.65625 1.921875 -3.570312 1.484375 -4.65625 C 1.054688 -5.738281 0.84375 -6.96875 0.84375 -8.34375 C 0.84375 -9.71875 1.0625 -10.945312 1.5 -12.03125 C 1.945312 -13.113281 2.554688 -14.035156 3.328125 -14.796875 C 4.109375 -15.554688 5.003906 -16.128906 6.015625 -16.515625 C 7.035156 -16.910156 8.125 -17.109375 9.28125 -17.109375 C 10.445312 -17.109375 11.535156 -16.910156 12.546875 -16.515625 C 13.566406 -16.128906 14.460938 -15.554688 15.234375 -14.796875 C 16.015625 -14.035156 16.625 -13.113281 17.0625 -12.03125 C 17.5 -10.945312 17.71875 -9.71875 17.71875 -8.34375 C 17.71875 -6.96875 17.492188 -5.738281 17.046875 -4.65625 C 16.609375 -3.570312 16 -2.65625 15.21875 -1.90625 C 14.445312 -1.15625 13.550781 -0.582031 12.53125 -0.1875 C 11.519531 0.207031 10.429688 0.40625 9.265625 0.40625 Z M 7.671875 -8.359375 C 7.671875 -7.210938 7.671875 -6.132812 7.671875 -5.125 C 7.679688 -4.113281 7.722656 -3.226562 7.796875 -2.46875 C 7.878906 -1.707031 8.035156 -1.113281 8.265625 -0.6875 C 8.492188 -0.257812 8.828125 -0.046875 9.265625 -0.046875 C 9.710938 -0.046875 10.046875 -0.257812 10.265625 -0.6875 C 10.492188 -1.113281 10.644531 -1.707031 10.71875 -2.46875 C 10.800781 -3.226562 10.84375 -4.113281 10.84375 -5.125 C 10.851562 -6.132812 10.859375 -7.210938 10.859375 -8.359375 C 10.859375 -9.515625 10.851562 -10.59375 10.84375 -11.59375 C 10.84375 -12.59375 10.800781 -13.46875 10.71875 -14.21875 C 10.644531 -14.976562 10.492188 -15.570312 10.265625 -16 C 10.046875 -16.425781 9.710938 -16.640625 9.265625 -16.640625 C 8.828125 -16.640625 8.492188 -16.425781 8.265625 -16 C 8.035156 -15.570312 7.878906 -14.976562 7.796875 -14.21875 C 7.722656 -13.46875 7.679688 -12.59375 7.671875 -11.59375 C 7.671875 -10.59375 7.671875 -9.515625 7.671875 -8.359375 Z M 7.671875 -8.359375 "/></g></g></g><g fill="#fefefe" fill-opacity="1"><g transform="translate(158.615266, 26.261069)"><g><path d="M 0.203125 -15.09375 L 0.203125 -15.296875 C 0.785156 -15.296875 1.4375 -15.359375 2.15625 -15.484375 C 2.875 -15.609375 3.597656 -15.765625 4.328125 -15.953125 C 5.054688 -16.148438 5.722656 -16.347656 6.328125 -16.546875 C 6.929688 -16.753906 7.394531 -16.941406 7.71875 -17.109375 L 7.921875 -17.109375 L 7.921875 -14.140625 C 8.085938 -14.523438 8.359375 -14.945312 8.734375 -15.40625 C 9.117188 -15.863281 9.625 -16.257812 10.25 -16.59375 C 10.875 -16.9375 11.613281 -17.109375 12.46875 -17.109375 C 13.488281 -17.109375 14.332031 -16.890625 15 -16.453125 C 15.664062 -16.015625 16.160156 -15.457031 16.484375 -14.78125 C 16.816406 -14.113281 16.984375 -13.414062 16.984375 -12.6875 C 16.984375 -11.5 16.648438 -10.554688 15.984375 -9.859375 C 15.328125 -9.160156 14.460938 -8.8125 13.390625 -8.8125 C 12.328125 -8.8125 11.460938 -9.140625 10.796875 -9.796875 C 10.140625 -10.453125 9.8125 -11.3125 9.8125 -12.375 C 9.8125 -12.800781 9.863281 -13.128906 9.96875 -13.359375 C 10.070312 -13.597656 10.175781 -13.804688 10.28125 -13.984375 C 10.382812 -14.171875 10.4375 -14.390625 10.4375 -14.640625 C 10.4375 -14.953125 10.269531 -15.109375 9.9375 -15.109375 C 9.695312 -15.109375 9.414062 -15.003906 9.09375 -14.796875 C 8.769531 -14.597656 8.492188 -14.304688 8.265625 -13.921875 C 8.035156 -13.546875 7.921875 -13.082031 7.921875 -12.53125 L 7.921875 -2.9375 C 7.921875 -2.164062 8.023438 -1.550781 8.234375 -1.09375 C 8.441406 -0.632812 8.789062 -0.335938 9.28125 -0.203125 L 9.28125 0 L 0.25 0 L 0.25 -0.203125 C 0.738281 -0.335938 1.085938 -0.632812 1.296875 -1.09375 C 1.515625 -1.550781 1.625 -2.164062 1.625 -2.9375 L 1.625 -12.3125 C 1.625 -12.96875 1.539062 -13.5 1.375 -13.90625 C 1.21875 -14.3125 1.03125 -14.609375 0.8125 -14.796875 C 0.59375 -14.992188 0.390625 -15.09375 0.203125 -15.09375 Z M 0.203125 -15.09375 "/></g></g></g><g fill="#fefefe" fill-opacity="1"><g transform="translate(175.804671, 26.261069)"><g><path d="M 0.203125 -15.296875 C 0.742188 -15.296875 1.351562 -15.351562 2.03125 -15.46875 C 2.707031 -15.59375 3.390625 -15.742188 4.078125 -15.921875 C 4.765625 -16.097656 5.40625 -16.28125 6 -16.46875 C 6.59375 -16.664062 7.078125 -16.835938 7.453125 -16.984375 C 7.566406 -17.023438 7.65625 -17.066406 7.71875 -17.109375 L 7.921875 -17.109375 L 7.921875 -2.9375 C 7.921875 -2.164062 8.023438 -1.550781 8.234375 -1.09375 C 8.441406 -0.632812 8.789062 -0.335938 9.28125 -0.203125 L 9.28125 0 L 0.25 0 L 0.25 -0.203125 C 0.738281 -0.335938 1.085938 -0.632812 1.296875 -1.09375 C 1.515625 -1.550781 1.625 -2.164062 1.625 -2.9375 L 1.625 -12.3125 C 1.625 -12.96875 1.539062 -13.5 1.375 -13.90625 C 1.21875 -14.3125 1.03125 -14.609375 0.8125 -14.796875 C 0.59375 -14.992188 0.390625 -15.09375 0.203125 -15.09375 Z M 0.875 -21.3125 C 0.875 -22.019531 1.050781 -22.664062 1.40625 -23.25 C 1.757812 -23.832031 2.226562 -24.296875 2.8125 -24.640625 C 3.40625 -24.992188 4.050781 -25.171875 4.75 -25.171875 C 5.46875 -25.171875 6.117188 -24.992188 6.703125 -24.640625 C 7.296875 -24.296875 7.765625 -23.832031 8.109375 -23.25 C 8.460938 -22.664062 8.640625 -22.019531 8.640625 -21.3125 C 8.640625 -20.59375 8.460938 -19.9375 8.109375 -19.34375 C 7.765625 -18.757812 7.296875 -18.289062 6.703125 -17.9375 C 6.117188 -17.59375 5.46875 -17.421875 4.75 -17.421875 C 4.050781 -17.421875 3.40625 -17.59375 2.8125 -17.9375 C 2.226562 -18.289062 1.757812 -18.757812 1.40625 -19.34375 C 1.050781 -19.9375 0.875 -20.59375 0.875 -21.3125 Z M 0.875 -21.3125 "/></g></g></g><g fill="#fefefe" fill-opacity="1"><g transform="translate(185.302986, 26.261069)"><g><path d="M 10.40625 -1.625 C 10.40625 -2.238281 10.234375 -2.769531 9.890625 -3.21875 C 9.546875 -3.664062 9.085938 -4.066406 8.515625 -4.421875 C 7.953125 -4.773438 7.328125 -5.117188 6.640625 -5.453125 C 5.960938 -5.796875 5.28125 -6.15625 4.59375 -6.53125 C 3.914062 -6.914062 3.289062 -7.347656 2.71875 -7.828125 C 2.15625 -8.304688 1.703125 -8.882812 1.359375 -9.5625 C 1.015625 -10.238281 0.84375 -11.035156 0.84375 -11.953125 C 0.84375 -13.109375 1.15625 -14.0625 1.78125 -14.8125 C 2.414062 -15.570312 3.25 -16.144531 4.28125 -16.53125 C 5.3125 -16.914062 6.4375 -17.109375 7.65625 -17.109375 C 8.738281 -17.109375 9.679688 -17.046875 10.484375 -16.921875 C 11.285156 -16.796875 11.988281 -16.734375 12.59375 -16.734375 C 12.925781 -16.734375 13.25 -16.753906 13.5625 -16.796875 C 13.875 -16.847656 14.125 -16.953125 14.3125 -17.109375 L 14.515625 -17.109375 L 14.515625 -10.78125 L 14.3125 -10.78125 C 14.113281 -11.414062 13.835938 -12.070312 13.484375 -12.75 C 13.128906 -13.425781 12.707031 -14.054688 12.21875 -14.640625 C 11.738281 -15.234375 11.21875 -15.710938 10.65625 -16.078125 C 10.101562 -16.453125 9.53125 -16.640625 8.9375 -16.640625 C 8.34375 -16.640625 7.820312 -16.472656 7.375 -16.140625 C 6.9375 -15.804688 6.71875 -15.335938 6.71875 -14.734375 C 6.71875 -14.140625 6.875 -13.625 7.1875 -13.1875 C 7.507812 -12.757812 7.925781 -12.367188 8.4375 -12.015625 C 8.957031 -11.671875 9.53125 -11.335938 10.15625 -11.015625 C 10.78125 -10.691406 11.40625 -10.347656 12.03125 -9.984375 C 12.65625 -9.628906 13.222656 -9.21875 13.734375 -8.75 C 14.253906 -8.289062 14.671875 -7.742188 14.984375 -7.109375 C 15.304688 -6.484375 15.46875 -5.742188 15.46875 -4.890625 C 15.46875 -4.035156 15.265625 -3.28125 14.859375 -2.625 C 14.460938 -1.96875 13.925781 -1.414062 13.25 -0.96875 C 12.582031 -0.519531 11.832031 -0.179688 11 0.046875 C 10.175781 0.285156 9.347656 0.40625 8.515625 0.40625 C 7.535156 0.40625 6.632812 0.351562 5.8125 0.25 C 4.988281 0.15625 4.195312 -0.03125 3.4375 -0.3125 C 2.6875 -0.59375 1.910156 -1.007812 1.109375 -1.5625 L 1.109375 -6.515625 L 1.328125 -6.515625 C 1.710938 -5.734375 2.164062 -4.957031 2.6875 -4.1875 C 3.21875 -3.414062 3.796875 -2.71875 4.421875 -2.09375 C 5.046875 -1.46875 5.703125 -0.960938 6.390625 -0.578125 C 7.085938 -0.203125 7.800781 -0.015625 8.53125 -0.015625 C 9.0625 -0.015625 9.503906 -0.144531 9.859375 -0.40625 C 10.222656 -0.664062 10.40625 -1.070312 10.40625 -1.625 Z M 10.40625 -1.625 "/></g></g></g><g fill="#fefefe" fill-opacity="1"><g transform="translate(201.609828, 26.261069)"><g><path d="M 1.625 -19.5625 C 1.625 -20.21875 1.539062 -20.75 1.375 -21.15625 C 1.21875 -21.5625 1.03125 -21.859375 0.8125 -22.046875 C 0.59375 -22.242188 0.390625 -22.34375 0.203125 -22.34375 L 0.203125 -22.546875 C 0.785156 -22.546875 1.4375 -22.609375 2.15625 -22.734375 C 2.875 -22.859375 3.597656 -23.015625 4.328125 -23.203125 C 5.054688 -23.398438 5.722656 -23.597656 6.328125 -23.796875 C 6.929688 -24.003906 7.394531 -24.191406 7.71875 -24.359375 L 7.921875 -24.359375 L 7.921875 -8.359375 L 11.4375 -12.109375 C 12.007812 -12.722656 12.359375 -13.34375 12.484375 -13.96875 C 12.617188 -14.59375 12.507812 -15.140625 12.15625 -15.609375 C 11.8125 -16.078125 11.191406 -16.378906 10.296875 -16.515625 L 10.296875 -16.734375 L 19.296875 -16.734375 L 19.296875 -16.515625 C 18.847656 -16.515625 18.273438 -16.394531 17.578125 -16.15625 C 16.890625 -15.914062 16.175781 -15.582031 15.4375 -15.15625 C 14.695312 -14.726562 14.035156 -14.242188 13.453125 -13.703125 C 13.304688 -13.578125 13.171875 -13.445312 13.046875 -13.3125 C 12.921875 -13.175781 12.789062 -13.039062 12.65625 -12.90625 C 12.875 -12.332031 13.144531 -11.632812 13.46875 -10.8125 C 13.789062 -9.988281 14.140625 -9.117188 14.515625 -8.203125 C 14.898438 -7.285156 15.273438 -6.378906 15.640625 -5.484375 C 16.171875 -4.210938 16.625 -3.1875 17 -2.40625 C 17.375 -1.625 17.726562 -1.0625 18.0625 -0.71875 C 18.394531 -0.375 18.734375 -0.203125 19.078125 -0.203125 L 19.078125 0 L 9.8125 0 L 9.8125 -0.203125 C 10.132812 -0.378906 10.359375 -0.566406 10.484375 -0.765625 C 10.609375 -0.972656 10.644531 -1.257812 10.59375 -1.625 C 10.539062 -1.988281 10.398438 -2.476562 10.171875 -3.09375 C 9.960938 -3.664062 9.65625 -4.34375 9.25 -5.125 C 8.84375 -5.914062 8.445312 -6.875 8.0625 -8 C 8.050781 -8.070312 8.03125 -8.132812 8 -8.1875 C 7.976562 -8.25 7.953125 -8.304688 7.921875 -8.359375 L 7.921875 -2.9375 C 7.921875 -2.164062 8.023438 -1.550781 8.234375 -1.09375 C 8.441406 -0.632812 8.789062 -0.335938 9.28125 -0.203125 L 9.28125 0 L 0.25 0 L 0.25 -0.203125 C 0.738281 -0.335938 1.085938 -0.632812 1.296875 -1.09375 C 1.515625 -1.550781 1.625 -2.164062 1.625 -2.9375 Z M 1.625 -19.5625 "/></g></g></g><g clip-path="url(#57480e5a79)"><g transform="matrix(1, 0, 0, 1, 224, 4)"><g clip-path="url(#8ead43d491)"><g clip-path="url(#e76cad1a54)"><g fill="#fefefe" fill-opacity="1"><g transform="translate(14.711208, 67.803869)"><g><path d="M 0 0 L -0.109375 0 C -0.109375 -0.144531 -0.210938 -0.285156 -0.421875 -0.421875 C -0.628906 -0.554688 -0.894531 -0.679688 -1.21875 -0.796875 C -1.539062 -0.910156 -1.878906 -1.019531 -2.234375 -1.125 C -2.597656 -1.226562 -2.929688 -1.316406 -3.234375 -1.390625 C -4.015625 -1.585938 -4.726562 -1.769531 -5.375 -1.9375 C -6.03125 -2.101562 -6.660156 -2.257812 -7.265625 -2.40625 C -7.867188 -2.550781 -8.46875 -2.695312 -9.0625 -2.84375 C -9.664062 -3 -10.296875 -3.160156 -10.953125 -3.328125 C -11.609375 -3.492188 -12.320312 -3.675781 -13.09375 -3.875 L -13.09375 -7.671875 C -12.320312 -7.867188 -11.609375 -8.050781 -10.953125 -8.21875 C -10.296875 -8.382812 -9.664062 -8.539062 -9.0625 -8.6875 C -8.46875 -8.84375 -7.867188 -8.992188 -7.265625 -9.140625 C -6.660156 -9.296875 -6.03125 -9.453125 -5.375 -9.609375 C -4.726562 -9.773438 -4.015625 -9.957031 -3.234375 -10.15625 C -2.929688 -10.226562 -2.597656 -10.3125 -2.234375 -10.40625 C -1.878906 -10.507812 -1.539062 -10.617188 -1.21875 -10.734375 C -0.894531 -10.859375 -0.628906 -10.988281 -0.421875 -11.125 C -0.210938 -11.257812 -0.109375 -11.398438 -0.109375 -11.546875 L 0 -11.546875 L 0 -5.78125 L -0.109375 -5.78125 C -0.328125 -6.0625 -0.640625 -6.238281 -1.046875 -6.3125 C -1.453125 -6.394531 -1.910156 -6.414062 -2.421875 -6.375 C -2.941406 -6.332031 -3.472656 -6.253906 -4.015625 -6.140625 L -4.015625 -2.90625 C -3.117188 -2.976562 -2.34375 -3.15625 -1.6875 -3.4375 C -1.03125 -3.71875 -0.503906 -4.125 -0.109375 -4.65625 L 0 -4.65625 Z M -12.703125 -3.96875 C -11.023438 -3.59375 -9.472656 -3.300781 -8.046875 -3.09375 C -6.628906 -2.894531 -5.359375 -2.828125 -4.234375 -2.890625 L -4.234375 -6.09375 C -4.535156 -6.03125 -4.828125 -5.960938 -5.109375 -5.890625 C -5.398438 -5.816406 -5.675781 -5.75 -5.9375 -5.6875 C -6.46875 -5.550781 -6.941406 -5.425781 -7.359375 -5.3125 C -7.785156 -5.207031 -8.1875 -5.109375 -8.5625 -5.015625 C -8.945312 -4.921875 -9.335938 -4.820312 -9.734375 -4.71875 C -10.140625 -4.625 -10.578125 -4.515625 -11.046875 -4.390625 C -11.523438 -4.273438 -12.078125 -4.132812 -12.703125 -3.96875 Z M -12.703125 -3.96875 "/></g></g></g></g><g fill="#fefefe" fill-opacity="1"><g transform="translate(14.711208, 56.259888)"><g><path d="M 0 0 L -0.109375 0 C -0.109375 -0.144531 -0.210938 -0.285156 -0.421875 -0.421875 C -0.628906 -0.554688 -0.894531 -0.679688 -1.21875 -0.796875 C -1.539062 -0.910156 -1.878906 -1.019531 -2.234375 -1.125 C -2.597656 -1.226562 -2.929688 -1.316406 -3.234375 -1.390625 C -4.015625 -1.585938 -4.726562 -1.769531 -5.375 -1.9375 C -6.03125 -2.101562 -6.660156 -2.257812 -7.265625 -2.40625 C -7.867188 -2.550781 -8.46875 -2.695312 -9.0625 -2.84375 C -9.664062 -3 -10.296875 -3.160156 -10.953125 -3.328125 C -11.609375 -3.492188 -12.320312 -3.675781 -13.09375 -3.875 L -13.09375 -7.671875 C -12.320312 -7.867188 -11.609375 -8.050781 -10.953125 -8.21875 C -10.296875 -8.382812 -9.664062 -8.539062 -9.0625 -8.6875 C -8.46875 -8.84375 -7.867188 -8.992188 -7.265625 -9.140625 C -6.660156 -9.296875 -6.03125 -9.453125 -5.375 -9.609375 C -4.726562 -9.773438 -4.015625 -9.957031 -3.234375 -10.15625 C -2.929688 -10.226562 -2.597656 -10.3125 -2.234375 -10.40625 C -1.878906 -10.507812 -1.539062 -10.617188 -1.21875 -10.734375 C -0.894531 -10.859375 -0.628906 -10.988281 -0.421875 -11.125 C -0.210938 -11.257812 -0.109375 -11.398438 -0.109375 -11.546875 L 0 -11.546875 L 0 -5.78125 L -0.109375 -5.78125 C -0.328125 -6.0625 -0.640625 -6.238281 -1.046875 -6.3125 C -1.453125 -6.394531 -1.910156 -6.414062 -2.421875 -6.375 C -2.941406 -6.332031 -3.472656 -6.253906 -4.015625 -6.140625 L -4.015625 -2.90625 C -3.117188 -2.976562 -2.34375 -3.15625 -1.6875 -3.4375 C -1.03125 -3.71875 -0.503906 -4.125 -0.109375 -4.65625 L 0 -4.65625 Z M -12.703125 -3.96875 C -11.023438 -3.59375 -9.472656 -3.300781 -8.046875 -3.09375 C -6.628906 -2.894531 -5.359375 -2.828125 -4.234375 -2.890625 L -4.234375 -6.09375 C -4.535156 -6.03125 -4.828125 -5.960938 -5.109375 -5.890625 C -5.398438 -5.816406 -5.675781 -5.75 -5.9375 -5.6875 C -6.46875 -5.550781 -6.941406 -5.425781 -7.359375 -5.3125 C -7.785156 -5.207031 -8.1875 -5.109375 -8.5625 -5.015625 C -8.945312 -4.921875 -9.335938 -4.820312 -9.734375 -4.71875 C -10.140625 -4.625 -10.578125 -4.515625 -11.046875 -4.390625 C -11.523438 -4.273438 -12.078125 -4.132812 -12.703125 -3.96875 Z M -12.703125 -3.96875 "/></g></g></g><g fill="#fefefe" fill-opacity="1"><g transform="translate(14.711208, 44.715907)"><g><path d="M -12.984375 -0.28125 L -13.09375 -0.28125 L -13.09375 -6.90625 C -13.09375 -7.6875 -12.957031 -8.335938 -12.6875 -8.859375 C -12.414062 -9.378906 -12.050781 -9.769531 -11.59375 -10.03125 C -11.144531 -10.289062 -10.648438 -10.421875 -10.109375 -10.421875 C -9.535156 -10.421875 -9.0625 -10.316406 -8.6875 -10.109375 C -8.3125 -9.898438 -8.015625 -9.609375 -7.796875 -9.234375 C -7.585938 -8.859375 -7.4375 -8.421875 -7.34375 -7.921875 C -7.257812 -7.429688 -7.21875 -6.898438 -7.21875 -6.328125 C -7.070312 -6.984375 -6.859375 -7.519531 -6.578125 -7.9375 C -6.304688 -8.351562 -5.984375 -8.6875 -5.609375 -8.9375 C -5.234375 -9.195312 -4.835938 -9.394531 -4.421875 -9.53125 C -4.003906 -9.675781 -3.585938 -9.796875 -3.171875 -9.890625 C -2.753906 -9.984375 -2.363281 -10.082031 -2 -10.1875 C -1.632812 -10.289062 -1.316406 -10.429688 -1.046875 -10.609375 C -0.785156 -10.785156 -0.597656 -11.03125 -0.484375 -11.34375 C -0.484375 -11.34375 -0.445312 -11.316406 -0.375 -11.265625 C -0.3125 -11.222656 -0.226562 -11.132812 -0.125 -11 C -0.03125 -10.875 0.046875 -10.695312 0.109375 -10.46875 C 0.179688 -10.238281 0.21875 -9.945312 0.21875 -9.59375 C 0.21875 -8.875 0.113281 -8.285156 -0.09375 -7.828125 C -0.300781 -7.367188 -0.578125 -7.015625 -0.921875 -6.765625 C -1.273438 -6.515625 -1.664062 -6.335938 -2.09375 -6.234375 C -2.53125 -6.128906 -2.976562 -6.0625 -3.4375 -6.03125 C -3.90625 -6 -4.351562 -5.972656 -4.78125 -5.953125 C -5.21875 -5.941406 -5.609375 -5.90625 -5.953125 -5.84375 C -6.304688 -5.78125 -6.585938 -5.660156 -6.796875 -5.484375 C -7.003906 -5.316406 -7.109375 -5.054688 -7.109375 -4.703125 L -1.609375 -4.703125 C -1.179688 -4.703125 -0.84375 -4.757812 -0.59375 -4.875 C -0.34375 -4.988281 -0.179688 -5.179688 -0.109375 -5.453125 L 0 -5.453125 L 0 -0.28125 L -0.109375 -0.28125 C -0.179688 -0.550781 -0.34375 -0.742188 -0.59375 -0.859375 C -0.84375 -0.972656 -1.179688 -1.03125 -1.609375 -1.03125 L -11.484375 -1.03125 C -11.910156 -1.03125 -12.25 -0.972656 -12.5 -0.859375 C -12.75 -0.742188 -12.910156 -0.550781 -12.984375 -0.28125 Z M -12.9375 -4.9375 L -12.9375 -4.703125 L -7.34375 -4.703125 L -7.34375 -5.125 C -7.34375 -5.414062 -7.425781 -5.6875 -7.59375 -5.9375 C -7.769531 -6.1875 -8.066406 -6.382812 -8.484375 -6.53125 C -8.910156 -6.675781 -9.492188 -6.75 -10.234375 -6.75 C -10.703125 -6.75 -11.140625 -6.695312 -11.546875 -6.59375 C -11.960938 -6.488281 -12.296875 -6.304688 -12.546875 -6.046875 C -12.804688 -5.785156 -12.9375 -5.414062 -12.9375 -4.9375 Z M -12.9375 -4.9375 "/></g></g></g><g fill="#fefefe" fill-opacity="1"><g transform="translate(14.711208, 33.252331)"><g><path d="M -11.484375 -1.03125 C -11.910156 -1.03125 -12.25 -0.972656 -12.5 -0.859375 C -12.75 -0.742188 -12.910156 -0.550781 -12.984375 -0.28125 L -13.09375 -0.28125 L -13.09375 -5.453125 L -12.984375 -5.453125 C -12.910156 -5.179688 -12.75 -4.988281 -12.5 -4.875 C -12.25 -4.757812 -11.910156 -4.703125 -11.484375 -4.703125 L -7.71875 -4.703125 L -7.71875 -6.734375 L -11.484375 -6.734375 C -11.910156 -6.734375 -12.25 -6.675781 -12.5 -6.5625 C -12.75 -6.445312 -12.910156 -6.253906 -12.984375 -5.984375 L -13.09375 -5.984375 L -13.09375 -11.15625 L -12.984375 -11.15625 C -12.910156 -10.882812 -12.75 -10.691406 -12.5 -10.578125 C -12.25 -10.460938 -11.910156 -10.40625 -11.484375 -10.40625 L -1.609375 -10.40625 C -1.179688 -10.40625 -0.84375 -10.460938 -0.59375 -10.578125 C -0.34375 -10.691406 -0.179688 -10.882812 -0.109375 -11.15625 L 0 -11.15625 L 0 -5.984375 L -0.109375 -5.984375 C -0.179688 -6.253906 -0.34375 -6.445312 -0.59375 -6.5625 C -0.84375 -6.675781 -1.179688 -6.734375 -1.609375 -6.734375 L -7.484375 -6.734375 L -7.484375 -4.703125 L -1.609375 -4.703125 C -1.179688 -4.703125 -0.84375 -4.757812 -0.59375 -4.875 C -0.34375 -4.988281 -0.179688 -5.179688 -0.109375 -5.453125 L 0 -5.453125 L 0 -0.28125 L -0.109375 -0.28125 C -0.179688 -0.550781 -0.34375 -0.742188 -0.59375 -0.859375 C -0.84375 -0.972656 -1.179688 -1.03125 -1.609375 -1.03125 Z M -11.484375 -1.03125 "/></g></g></g><g fill="#fefefe" fill-opacity="1"><g transform="translate(14.711208, 21.811731)"><g><path d="M -13.09375 -0.28125 L -13.09375 -5.453125 L -12.984375 -5.453125 C -12.910156 -5.179688 -12.75 -4.988281 -12.5 -4.875 C -12.25 -4.757812 -11.910156 -4.703125 -11.484375 -4.703125 L -1.953125 -4.703125 C -1.785156 -4.703125 -1.597656 -4.707031 -1.390625 -4.71875 C -1.179688 -4.726562 -0.976562 -4.753906 -0.78125 -4.796875 C -0.59375 -4.847656 -0.429688 -4.9375 -0.296875 -5.0625 C -0.171875 -5.1875 -0.109375 -5.363281 -0.109375 -5.59375 C -0.109375 -5.832031 -0.164062 -6.015625 -0.28125 -6.140625 C -0.40625 -6.273438 -0.5625 -6.363281 -0.75 -6.40625 C -0.945312 -6.457031 -1.148438 -6.484375 -1.359375 -6.484375 C -1.566406 -6.492188 -1.765625 -6.5 -1.953125 -6.5 L -11.484375 -6.5 C -11.910156 -6.5 -12.25 -6.441406 -12.5 -6.328125 C -12.75 -6.210938 -12.910156 -6.019531 -12.984375 -5.75 L -13.09375 -5.75 L -13.09375 -10.921875 L -12.984375 -10.921875 C -12.910156 -10.648438 -12.75 -10.457031 -12.5 -10.34375 C -12.25 -10.226562 -11.910156 -10.171875 -11.484375 -10.171875 L -4.15625 -10.171875 C -3.238281 -10.171875 -2.453125 -10.015625 -1.796875 -9.703125 C -1.148438 -9.398438 -0.648438 -8.910156 -0.296875 -8.234375 C 0.046875 -7.566406 0.21875 -6.691406 0.21875 -5.609375 C 0.21875 -4.523438 0.046875 -3.644531 -0.296875 -2.96875 C -0.648438 -2.300781 -1.148438 -1.8125 -1.796875 -1.5 C -2.453125 -1.1875 -3.238281 -1.03125 -4.15625 -1.03125 L -11.484375 -1.03125 C -11.910156 -1.03125 -12.25 -0.972656 -12.5 -0.859375 C -12.75 -0.742188 -12.910156 -0.550781 -12.984375 -0.28125 Z M -13.09375 -0.28125 "/></g></g></g><g fill="#fefefe" fill-opacity="1"><g transform="translate(14.711208, 10.600864)"><g><path d="M -1.65625 -6.78125 C -2.15625 -6.78125 -2.585938 -6.691406 -2.953125 -6.515625 C -3.328125 -6.335938 -3.648438 -6.097656 -3.921875 -5.796875 C -4.203125 -5.503906 -4.453125 -5.171875 -4.671875 -4.796875 C -4.898438 -4.421875 -5.125 -4.035156 -5.34375 -3.640625 C -5.5625 -3.253906 -5.796875 -2.875 -6.046875 -2.5 C -6.296875 -2.125 -6.582031 -1.785156 -6.90625 -1.484375 C -7.238281 -1.191406 -7.628906 -0.957031 -8.078125 -0.78125 C -8.523438 -0.601562 -9.054688 -0.515625 -9.671875 -0.515625 C -10.503906 -0.515625 -11.1875 -0.707031 -11.71875 -1.09375 C -12.257812 -1.476562 -12.660156 -2 -12.921875 -2.65625 C -13.179688 -3.3125 -13.3125 -4.050781 -13.3125 -4.875 C -13.3125 -5.28125 -13.289062 -5.648438 -13.25 -5.984375 C -13.21875 -6.328125 -13.179688 -6.664062 -13.140625 -7 C -13.109375 -7.34375 -13.09375 -7.71875 -13.09375 -8.125 C -13.09375 -8.238281 -13.109375 -8.363281 -13.140625 -8.5 C -13.179688 -8.632812 -13.238281 -8.734375 -13.3125 -8.796875 L -13.3125 -8.90625 L -9.140625 -8.90625 L -9.140625 -8.796875 C -9.453125 -8.753906 -9.785156 -8.648438 -10.140625 -8.484375 C -10.503906 -8.316406 -10.859375 -8.097656 -11.203125 -7.828125 C -11.546875 -7.566406 -11.863281 -7.269531 -12.15625 -6.9375 C -12.445312 -6.613281 -12.675781 -6.273438 -12.84375 -5.921875 C -13.007812 -5.566406 -13.09375 -5.210938 -13.09375 -4.859375 C -13.09375 -4.421875 -12.957031 -4.050781 -12.6875 -3.75 C -12.414062 -3.445312 -12.03125 -3.296875 -11.53125 -3.296875 C -11.050781 -3.296875 -10.632812 -3.382812 -10.28125 -3.5625 C -9.925781 -3.738281 -9.613281 -3.976562 -9.34375 -4.28125 C -9.082031 -4.582031 -8.84375 -4.914062 -8.625 -5.28125 C -8.40625 -5.65625 -8.191406 -6.039062 -7.984375 -6.4375 C -7.773438 -6.84375 -7.546875 -7.234375 -7.296875 -7.609375 C -7.046875 -7.984375 -6.757812 -8.320312 -6.4375 -8.625 C -6.125 -8.925781 -5.75 -9.160156 -5.3125 -9.328125 C -4.875 -9.503906 -4.363281 -9.59375 -3.78125 -9.59375 C -3.207031 -9.59375 -2.675781 -9.484375 -2.1875 -9.265625 C -1.707031 -9.046875 -1.285156 -8.734375 -0.921875 -8.328125 C -0.566406 -7.929688 -0.285156 -7.457031 -0.078125 -6.90625 C 0.117188 -6.363281 0.21875 -5.773438 0.21875 -5.140625 C 0.21875 -4.503906 0.171875 -3.929688 0.078125 -3.421875 C -0.015625 -2.921875 -0.160156 -2.445312 -0.359375 -2 C -0.566406 -1.550781 -0.832031 -1.101562 -1.15625 -0.65625 L -5.5 -0.65625 L -5.5 -0.796875 C -5.34375 -0.796875 -5.097656 -0.847656 -4.765625 -0.953125 C -4.429688 -1.054688 -4.054688 -1.203125 -3.640625 -1.390625 C -3.234375 -1.578125 -2.816406 -1.800781 -2.390625 -2.0625 C -1.972656 -2.332031 -1.582031 -2.628906 -1.21875 -2.953125 C -0.863281 -3.273438 -0.570312 -3.617188 -0.34375 -3.984375 C -0.125 -4.347656 -0.015625 -4.722656 -0.015625 -5.109375 C -0.015625 -5.535156 -0.0859375 -5.867188 -0.234375 -6.109375 C -0.378906 -6.359375 -0.570312 -6.53125 -0.8125 -6.625 C -1.0625 -6.726562 -1.34375 -6.78125 -1.65625 -6.78125 Z M -1.65625 -6.78125 "/></g></g></g></g></g></g></g></g></svg>