<svg xmlns="http://www.w3.org/2000/svg" xmlns:xlink="http://www.w3.org/1999/xlink" width="290" zoomAndPan="magnify" viewBox="0 0 217.5 137.999998" height="184" preserveAspectRatio="xMidYMid meet" version="1.0"><defs><g/><clipPath id="171aa04335"><rect x="0" width="37" y="0" height="59"/></clipPath><clipPath id="1e0408b82b"><path d="M 149 6 L 167.460938 6 L 167.460938 73 L 149 73 Z M 149 6 " clip-rule="nonzero"/></clipPath><clipPath id="2508bfca8a"><path d="M 1 54 L 14 54 L 14 66.105469 L 1 66.105469 Z M 1 54 " clip-rule="nonzero"/></clipPath><clipPath id="7ff84cb59f"><path d="M 0.503906 0.257812 L 15 0.257812 L 15 10 L 0.503906 10 Z M 0.503906 0.257812 " clip-rule="nonzero"/></clipPath><clipPath id="cb4ae79a3a"><rect x="0" width="19" y="0" height="67"/></clipPath><clipPath id="5caf7d0660"><rect x="0" width="168" y="0" height="97"/></clipPath></defs><g transform="matrix(1, 0, 0, 1, 32, 20)"><g clip-path="url(#5caf7d0660)"><g fill="#fefefe" fill-opacity="1"><g transform="translate(80.084609, 72.449531)"><g><path d="M 1.5 -0.59375 C 2.894531 -0.957031 3.890625 -1.796875 4.484375 -3.109375 C 5.085938 -4.429688 5.390625 -6.1875 5.390625 -8.375 L 5.390625 -59.859375 C 5.390625 -62.097656 5.085938 -63.863281 4.484375 -65.15625 C 3.890625 -66.457031 2.894531 -67.285156 1.5 -67.640625 L 1.5 -68.234375 L 24.296875 -68.234375 L 37.59375 -27.359375 L 47.171875 -68.234375 L 70.21875 -68.234375 L 70.21875 -67.640625 C 68.820312 -67.285156 67.820312 -66.457031 67.21875 -65.15625 C 66.625 -63.863281 66.328125 -62.097656 66.328125 -59.859375 L 66.328125 -8.375 C 66.328125 -6.1875 66.625 -4.429688 67.21875 -3.109375 C 67.820312 -1.796875 68.820312 -0.957031 70.21875 -0.59375 L 70.21875 0 L 43.28125 0 L 43.28125 -0.59375 C 44.675781 -0.957031 45.671875 -1.796875 46.265625 -3.109375 C 46.867188 -4.429688 47.171875 -6.1875 47.171875 -8.375 L 47.171875 -62.375 L 32.5625 0 L 27.234375 0 L 6.578125 -63.625 L 6.578125 -50.515625 C 6.578125 -47.285156 6.765625 -43.875 7.140625 -40.28125 C 7.523438 -36.6875 8.078125 -33.09375 8.796875 -29.5 C 9.515625 -25.914062 10.375 -22.476562 11.375 -19.1875 C 12.375 -15.894531 13.472656 -12.910156 14.671875 -10.234375 C 15.867188 -7.554688 17.144531 -5.378906 18.5 -3.703125 C 19.851562 -2.035156 21.269531 -1 22.75 -0.59375 L 22.75 0 L 1.5 0 Z M 1.5 -0.59375 "/></g></g></g><g transform="matrix(1, 0, 0, 1, 50, 16)"><g clip-path="url(#171aa04335)"><g fill="#fefefe" fill-opacity="1"><g transform="translate(0.156078, 43.522139)"><g><path d="M 3.265625 -36.359375 C 3.265625 -37.710938 3.082031 -38.785156 2.71875 -39.578125 C 2.363281 -40.367188 1.757812 -40.875 0.90625 -41.09375 L 0.90625 -41.453125 L 17.265625 -41.453125 L 17.265625 -41.09375 C 16.421875 -40.875 15.816406 -40.367188 15.453125 -39.578125 C 15.085938 -38.785156 14.90625 -37.710938 14.90625 -36.359375 L 14.90625 -24.4375 L 21.3125 -24.4375 L 21.3125 -36.359375 C 21.3125 -37.710938 21.128906 -38.785156 20.765625 -39.578125 C 20.398438 -40.367188 19.789062 -40.875 18.9375 -41.09375 L 18.9375 -41.453125 L 35.3125 -41.453125 L 35.3125 -41.09375 C 34.457031 -40.875 33.847656 -40.367188 33.484375 -39.578125 C 33.117188 -38.785156 32.9375 -37.710938 32.9375 -36.359375 L 32.9375 -5.09375 C 32.9375 -3.757812 33.117188 -2.691406 33.484375 -1.890625 C 33.847656 -1.085938 34.457031 -0.578125 35.3125 -0.359375 L 35.3125 0 L 18.9375 0 L 18.9375 -0.359375 C 19.789062 -0.578125 20.398438 -1.085938 20.765625 -1.890625 C 21.128906 -2.691406 21.3125 -3.757812 21.3125 -5.09375 L 21.3125 -23.703125 L 14.90625 -23.703125 L 14.90625 -5.09375 C 14.90625 -3.757812 15.085938 -2.691406 15.453125 -1.890625 C 15.816406 -1.085938 16.421875 -0.578125 17.265625 -0.359375 L 17.265625 0 L 0.90625 0 L 0.90625 -0.359375 C 1.757812 -0.578125 2.363281 -1.085938 2.71875 -1.890625 C 3.082031 -2.691406 3.265625 -3.757812 3.265625 -5.09375 Z M 3.265625 -36.359375 "/></g></g></g></g></g><g clip-path="url(#1e0408b82b)"><g transform="matrix(1, 0, 0, 1, 149, 6)"><g clip-path="url(#cb4ae79a3a)"><g clip-path="url(#2508bfca8a)"><g fill="#fefefe" fill-opacity="1"><g transform="translate(13.948662, 66.069862)"><g><path d="M 0 0 L -0.109375 0 C -0.109375 -0.144531 -0.207031 -0.28125 -0.40625 -0.40625 C -0.613281 -0.539062 -0.875 -0.664062 -1.1875 -0.78125 C -1.5 -0.894531 -1.832031 -1 -2.1875 -1.09375 C -2.539062 -1.195312 -2.863281 -1.285156 -3.15625 -1.359375 C -3.914062 -1.554688 -4.613281 -1.734375 -5.25 -1.890625 C -5.894531 -2.046875 -6.507812 -2.195312 -7.09375 -2.34375 C -7.675781 -2.488281 -8.257812 -2.632812 -8.84375 -2.78125 C -9.4375 -2.925781 -10.054688 -3.082031 -10.703125 -3.25 C -11.347656 -3.414062 -12.046875 -3.59375 -12.796875 -3.78125 L -12.796875 -7.5 C -12.046875 -7.6875 -11.347656 -7.859375 -10.703125 -8.015625 C -10.054688 -8.179688 -9.4375 -8.335938 -8.84375 -8.484375 C -8.257812 -8.640625 -7.675781 -8.789062 -7.09375 -8.9375 C -6.507812 -9.09375 -5.894531 -9.25 -5.25 -9.40625 C -4.613281 -9.5625 -3.914062 -9.734375 -3.15625 -9.921875 C -2.863281 -9.992188 -2.539062 -10.078125 -2.1875 -10.171875 C -1.832031 -10.273438 -1.5 -10.382812 -1.1875 -10.5 C -0.875 -10.613281 -0.613281 -10.734375 -0.40625 -10.859375 C -0.207031 -10.992188 -0.109375 -11.132812 -0.109375 -11.28125 L 0 -11.28125 L 0 -5.640625 L -0.109375 -5.640625 C -0.316406 -5.921875 -0.617188 -6.097656 -1.015625 -6.171875 C -1.410156 -6.253906 -1.859375 -6.273438 -2.359375 -6.234375 C -2.867188 -6.191406 -3.390625 -6.113281 -3.921875 -6 L -3.921875 -2.84375 C -3.046875 -2.914062 -2.285156 -3.085938 -1.640625 -3.359375 C -1.003906 -3.628906 -0.492188 -4.03125 -0.109375 -4.5625 L 0 -4.5625 Z M -12.40625 -3.875 C -10.769531 -3.507812 -9.253906 -3.222656 -7.859375 -3.015625 C -6.472656 -2.816406 -5.234375 -2.753906 -4.140625 -2.828125 L -4.140625 -5.953125 C -4.429688 -5.890625 -4.71875 -5.820312 -5 -5.75 C -5.28125 -5.675781 -5.546875 -5.609375 -5.796875 -5.546875 C -6.316406 -5.410156 -6.78125 -5.289062 -7.1875 -5.1875 C -7.601562 -5.082031 -8 -4.984375 -8.375 -4.890625 C -8.75 -4.796875 -9.128906 -4.703125 -9.515625 -4.609375 C -9.898438 -4.515625 -10.320312 -4.410156 -10.78125 -4.296875 C -11.25 -4.179688 -11.789062 -4.039062 -12.40625 -3.875 Z M -12.40625 -3.875 "/></g></g></g></g><g fill="#fefefe" fill-opacity="1"><g transform="translate(13.948662, 54.788781)"><g><path d="M 0 0 L -0.109375 0 C -0.109375 -0.144531 -0.207031 -0.28125 -0.40625 -0.40625 C -0.613281 -0.539062 -0.875 -0.664062 -1.1875 -0.78125 C -1.5 -0.894531 -1.832031 -1 -2.1875 -1.09375 C -2.539062 -1.195312 -2.863281 -1.285156 -3.15625 -1.359375 C -3.914062 -1.554688 -4.613281 -1.734375 -5.25 -1.890625 C -5.894531 -2.046875 -6.507812 -2.195312 -7.09375 -2.34375 C -7.675781 -2.488281 -8.257812 -2.632812 -8.84375 -2.78125 C -9.4375 -2.925781 -10.054688 -3.082031 -10.703125 -3.25 C -11.347656 -3.414062 -12.046875 -3.59375 -12.796875 -3.78125 L -12.796875 -7.5 C -12.046875 -7.6875 -11.347656 -7.859375 -10.703125 -8.015625 C -10.054688 -8.179688 -9.4375 -8.335938 -8.84375 -8.484375 C -8.257812 -8.640625 -7.675781 -8.789062 -7.09375 -8.9375 C -6.507812 -9.09375 -5.894531 -9.25 -5.25 -9.40625 C -4.613281 -9.5625 -3.914062 -9.734375 -3.15625 -9.921875 C -2.863281 -9.992188 -2.539062 -10.078125 -2.1875 -10.171875 C -1.832031 -10.273438 -1.5 -10.382812 -1.1875 -10.5 C -0.875 -10.613281 -0.613281 -10.734375 -0.40625 -10.859375 C -0.207031 -10.992188 -0.109375 -11.132812 -0.109375 -11.28125 L 0 -11.28125 L 0 -5.640625 L -0.109375 -5.640625 C -0.316406 -5.921875 -0.617188 -6.097656 -1.015625 -6.171875 C -1.410156 -6.253906 -1.859375 -6.273438 -2.359375 -6.234375 C -2.867188 -6.191406 -3.390625 -6.113281 -3.921875 -6 L -3.921875 -2.84375 C -3.046875 -2.914062 -2.285156 -3.085938 -1.640625 -3.359375 C -1.003906 -3.628906 -0.492188 -4.03125 -0.109375 -4.5625 L 0 -4.5625 Z M -12.40625 -3.875 C -10.769531 -3.507812 -9.253906 -3.222656 -7.859375 -3.015625 C -6.472656 -2.816406 -5.234375 -2.753906 -4.140625 -2.828125 L -4.140625 -5.953125 C -4.429688 -5.890625 -4.71875 -5.820312 -5 -5.75 C -5.28125 -5.675781 -5.546875 -5.609375 -5.796875 -5.546875 C -6.316406 -5.410156 -6.78125 -5.289062 -7.1875 -5.1875 C -7.601562 -5.082031 -8 -4.984375 -8.375 -4.890625 C -8.75 -4.796875 -9.128906 -4.703125 -9.515625 -4.609375 C -9.898438 -4.515625 -10.320312 -4.410156 -10.78125 -4.296875 C -11.25 -4.179688 -11.789062 -4.039062 -12.40625 -3.875 Z M -12.40625 -3.875 "/></g></g></g><g fill="#fefefe" fill-opacity="1"><g transform="translate(13.948662, 43.5077)"><g><path d="M -12.671875 -0.28125 L -12.796875 -0.28125 L -12.796875 -6.75 C -12.796875 -7.507812 -12.660156 -8.144531 -12.390625 -8.65625 C -12.128906 -9.164062 -11.773438 -9.546875 -11.328125 -9.796875 C -10.890625 -10.054688 -10.40625 -10.1875 -9.875 -10.1875 C -9.320312 -10.1875 -8.859375 -10.082031 -8.484375 -9.875 C -8.117188 -9.664062 -7.832031 -9.378906 -7.625 -9.015625 C -7.414062 -8.648438 -7.265625 -8.222656 -7.171875 -7.734375 C -7.085938 -7.253906 -7.046875 -6.738281 -7.046875 -6.1875 C -6.910156 -6.820312 -6.707031 -7.34375 -6.4375 -7.75 C -6.164062 -8.164062 -5.847656 -8.492188 -5.484375 -8.734375 C -5.117188 -8.984375 -4.734375 -9.175781 -4.328125 -9.3125 C -3.921875 -9.457031 -3.507812 -9.570312 -3.09375 -9.65625 C -2.6875 -9.75 -2.304688 -9.84375 -1.953125 -9.9375 C -1.597656 -10.039062 -1.289062 -10.179688 -1.03125 -10.359375 C -0.769531 -10.535156 -0.582031 -10.773438 -0.46875 -11.078125 C -0.46875 -11.078125 -0.429688 -11.050781 -0.359375 -11 C -0.296875 -10.957031 -0.21875 -10.875 -0.125 -10.75 C -0.03125 -10.625 0.046875 -10.445312 0.109375 -10.21875 C 0.179688 -10 0.21875 -9.71875 0.21875 -9.375 C 0.21875 -8.664062 0.117188 -8.085938 -0.078125 -7.640625 C -0.285156 -7.203125 -0.554688 -6.859375 -0.890625 -6.609375 C -1.234375 -6.367188 -1.617188 -6.195312 -2.046875 -6.09375 C -2.472656 -5.988281 -2.910156 -5.921875 -3.359375 -5.890625 C -3.816406 -5.859375 -4.253906 -5.832031 -4.671875 -5.8125 C -5.097656 -5.800781 -5.484375 -5.765625 -5.828125 -5.703125 C -6.171875 -5.648438 -6.441406 -5.535156 -6.640625 -5.359375 C -6.835938 -5.191406 -6.9375 -4.9375 -6.9375 -4.59375 L -1.578125 -4.59375 C -1.160156 -4.59375 -0.828125 -4.648438 -0.578125 -4.765625 C -0.335938 -4.878906 -0.179688 -5.066406 -0.109375 -5.328125 L 0 -5.328125 L 0 -0.28125 L -0.109375 -0.28125 C -0.179688 -0.539062 -0.335938 -0.726562 -0.578125 -0.84375 C -0.828125 -0.957031 -1.160156 -1.015625 -1.578125 -1.015625 L -11.21875 -1.015625 C -11.632812 -1.015625 -11.960938 -0.957031 -12.203125 -0.84375 C -12.453125 -0.726562 -12.609375 -0.539062 -12.671875 -0.28125 Z M -12.640625 -4.828125 L -12.640625 -4.59375 L -7.171875 -4.59375 L -7.171875 -5 C -7.171875 -5.289062 -7.253906 -5.554688 -7.421875 -5.796875 C -7.597656 -6.035156 -7.890625 -6.226562 -8.296875 -6.375 C -8.710938 -6.519531 -9.28125 -6.59375 -10 -6.59375 C -10.457031 -6.59375 -10.882812 -6.539062 -11.28125 -6.4375 C -11.6875 -6.332031 -12.015625 -6.148438 -12.265625 -5.890625 C -12.515625 -5.640625 -12.640625 -5.285156 -12.640625 -4.828125 Z M -12.640625 -4.828125 "/></g></g></g><g fill="#fefefe" fill-opacity="1"><g transform="translate(13.948662, 32.305193)"><g><path d="M -11.21875 -1.015625 C -11.632812 -1.015625 -11.960938 -0.957031 -12.203125 -0.84375 C -12.453125 -0.726562 -12.609375 -0.539062 -12.671875 -0.28125 L -12.796875 -0.28125 L -12.796875 -5.328125 L -12.671875 -5.328125 C -12.609375 -5.066406 -12.453125 -4.878906 -12.203125 -4.765625 C -11.960938 -4.648438 -11.632812 -4.59375 -11.21875 -4.59375 L -7.53125 -4.59375 L -7.53125 -6.578125 L -11.21875 -6.578125 C -11.632812 -6.578125 -11.960938 -6.519531 -12.203125 -6.40625 C -12.453125 -6.289062 -12.609375 -6.101562 -12.671875 -5.84375 L -12.796875 -5.84375 L -12.796875 -10.890625 L -12.671875 -10.890625 C -12.609375 -10.628906 -12.453125 -10.441406 -12.203125 -10.328125 C -11.960938 -10.222656 -11.632812 -10.171875 -11.21875 -10.171875 L -1.578125 -10.171875 C -1.160156 -10.171875 -0.828125 -10.222656 -0.578125 -10.328125 C -0.335938 -10.441406 -0.179688 -10.628906 -0.109375 -10.890625 L 0 -10.890625 L 0 -5.84375 L -0.109375 -5.84375 C -0.179688 -6.101562 -0.335938 -6.289062 -0.578125 -6.40625 C -0.828125 -6.519531 -1.160156 -6.578125 -1.578125 -6.578125 L -7.3125 -6.578125 L -7.3125 -4.59375 L -1.578125 -4.59375 C -1.160156 -4.59375 -0.828125 -4.648438 -0.578125 -4.765625 C -0.335938 -4.878906 -0.179688 -5.066406 -0.109375 -5.328125 L 0 -5.328125 L 0 -0.28125 L -0.109375 -0.28125 C -0.179688 -0.539062 -0.335938 -0.726562 -0.578125 -0.84375 C -0.828125 -0.957031 -1.160156 -1.015625 -1.578125 -1.015625 Z M -11.21875 -1.015625 "/></g></g></g><g fill="#fefefe" fill-opacity="1"><g transform="translate(13.948662, 21.125139)"><g><path d="M -12.796875 -0.28125 L -12.796875 -5.328125 L -12.671875 -5.328125 C -12.609375 -5.066406 -12.453125 -4.878906 -12.203125 -4.765625 C -11.960938 -4.648438 -11.632812 -4.59375 -11.21875 -4.59375 L -1.90625 -4.59375 C -1.738281 -4.59375 -1.550781 -4.597656 -1.34375 -4.609375 C -1.144531 -4.617188 -0.953125 -4.644531 -0.765625 -4.6875 C -0.578125 -4.738281 -0.421875 -4.820312 -0.296875 -4.9375 C -0.171875 -5.0625 -0.109375 -5.238281 -0.109375 -5.46875 C -0.109375 -5.707031 -0.164062 -5.882812 -0.28125 -6 C -0.394531 -6.125 -0.546875 -6.210938 -0.734375 -6.265625 C -0.921875 -6.316406 -1.117188 -6.34375 -1.328125 -6.34375 C -1.535156 -6.34375 -1.726562 -6.34375 -1.90625 -6.34375 L -11.21875 -6.34375 C -11.632812 -6.34375 -11.960938 -6.285156 -12.203125 -6.171875 C -12.453125 -6.066406 -12.609375 -5.882812 -12.671875 -5.625 L -12.796875 -5.625 L -12.796875 -10.671875 L -12.671875 -10.671875 C -12.609375 -10.410156 -12.453125 -10.222656 -12.203125 -10.109375 C -11.960938 -9.992188 -11.632812 -9.9375 -11.21875 -9.9375 L -4.0625 -9.9375 C -3.164062 -9.9375 -2.398438 -9.785156 -1.765625 -9.484375 C -1.128906 -9.179688 -0.640625 -8.703125 -0.296875 -8.046875 C 0.046875 -7.390625 0.21875 -6.53125 0.21875 -5.46875 C 0.21875 -4.414062 0.046875 -3.5625 -0.296875 -2.90625 C -0.640625 -2.25 -1.128906 -1.769531 -1.765625 -1.46875 C -2.398438 -1.164062 -3.164062 -1.015625 -4.0625 -1.015625 L -11.21875 -1.015625 C -11.632812 -1.015625 -11.960938 -0.957031 -12.203125 -0.84375 C -12.453125 -0.726562 -12.609375 -0.539062 -12.671875 -0.28125 Z M -12.796875 -0.28125 "/></g></g></g><g clip-path="url(#7ff84cb59f)"><g fill="#fefefe" fill-opacity="1"><g transform="translate(13.948662, 10.169585)"><g><path d="M -1.609375 -6.625 C -2.109375 -6.625 -2.535156 -6.535156 -2.890625 -6.359375 C -3.253906 -6.191406 -3.566406 -5.960938 -3.828125 -5.671875 C -4.097656 -5.378906 -4.34375 -5.050781 -4.5625 -4.6875 C -4.789062 -4.320312 -5.007812 -3.945312 -5.21875 -3.5625 C -5.4375 -3.175781 -5.664062 -2.800781 -5.90625 -2.4375 C -6.144531 -2.070312 -6.425781 -1.742188 -6.75 -1.453125 C -7.070312 -1.160156 -7.453125 -0.925781 -7.890625 -0.75 C -8.328125 -0.582031 -8.847656 -0.5 -9.453125 -0.5 C -10.265625 -0.5 -10.929688 -0.6875 -11.453125 -1.0625 C -11.972656 -1.4375 -12.359375 -1.945312 -12.609375 -2.59375 C -12.867188 -3.238281 -13 -3.957031 -13 -4.75 C -13 -5.15625 -12.984375 -5.519531 -12.953125 -5.84375 C -12.921875 -6.175781 -12.882812 -6.507812 -12.84375 -6.84375 C -12.8125 -7.175781 -12.796875 -7.539062 -12.796875 -7.9375 C -12.796875 -8.050781 -12.8125 -8.171875 -12.84375 -8.296875 C -12.875 -8.429688 -12.925781 -8.53125 -13 -8.59375 L -13 -8.703125 L -8.9375 -8.703125 L -8.9375 -8.59375 C -9.238281 -8.550781 -9.5625 -8.445312 -9.90625 -8.28125 C -10.257812 -8.125 -10.601562 -7.914062 -10.9375 -7.65625 C -11.28125 -7.394531 -11.59375 -7.101562 -11.875 -6.78125 C -12.15625 -6.46875 -12.378906 -6.132812 -12.546875 -5.78125 C -12.710938 -5.4375 -12.796875 -5.09375 -12.796875 -4.75 C -12.796875 -4.320312 -12.660156 -3.957031 -12.390625 -3.65625 C -12.128906 -3.363281 -11.753906 -3.21875 -11.265625 -3.21875 C -10.796875 -3.21875 -10.390625 -3.300781 -10.046875 -3.46875 C -9.703125 -3.644531 -9.398438 -3.878906 -9.140625 -4.171875 C -8.878906 -4.472656 -8.640625 -4.800781 -8.421875 -5.15625 C -8.210938 -5.519531 -8.003906 -5.898438 -7.796875 -6.296875 C -7.597656 -6.691406 -7.375 -7.066406 -7.125 -7.421875 C -6.882812 -7.785156 -6.609375 -8.113281 -6.296875 -8.40625 C -5.984375 -8.707031 -5.613281 -8.941406 -5.1875 -9.109375 C -4.769531 -9.285156 -4.269531 -9.375 -3.6875 -9.375 C -3.132812 -9.375 -2.617188 -9.265625 -2.140625 -9.046875 C -1.671875 -8.835938 -1.257812 -8.535156 -0.90625 -8.140625 C -0.550781 -7.742188 -0.273438 -7.28125 -0.078125 -6.75 C 0.117188 -6.21875 0.21875 -5.640625 0.21875 -5.015625 C 0.21875 -4.398438 0.171875 -3.84375 0.078125 -3.34375 C -0.015625 -2.851562 -0.160156 -2.390625 -0.359375 -1.953125 C -0.554688 -1.515625 -0.816406 -1.078125 -1.140625 -0.640625 L -5.375 -0.640625 L -5.375 -0.78125 C -5.21875 -0.78125 -4.976562 -0.828125 -4.65625 -0.921875 C -4.332031 -1.023438 -3.96875 -1.171875 -3.5625 -1.359375 C -3.164062 -1.546875 -2.757812 -1.765625 -2.34375 -2.015625 C -1.9375 -2.273438 -1.554688 -2.5625 -1.203125 -2.875 C -0.847656 -3.195312 -0.5625 -3.535156 -0.34375 -3.890625 C -0.125 -4.242188 -0.015625 -4.613281 -0.015625 -5 C -0.015625 -5.414062 -0.0859375 -5.738281 -0.234375 -5.96875 C -0.378906 -6.207031 -0.570312 -6.375 -0.8125 -6.46875 C -1.050781 -6.570312 -1.316406 -6.625 -1.609375 -6.625 Z M -1.609375 -6.625 "/></g></g></g></g></g></g></g><g fill="#fefefe" fill-opacity="1"><g transform="translate(0.832489, 72.449531)"><g><path d="M 1.5 -67.640625 L 1.5 -68.234375 L 21.015625 -68.234375 L 49.390625 -19.578125 L 49.390625 -23.46875 C 49.390625 -26.414062 49.1875 -29.523438 48.78125 -32.796875 C 48.382812 -36.078125 47.828125 -39.351562 47.109375 -42.625 C 46.390625 -45.894531 45.550781 -48.992188 44.59375 -51.921875 C 43.632812 -54.859375 42.566406 -57.492188 41.390625 -59.828125 C 40.210938 -62.160156 38.984375 -64.015625 37.703125 -65.390625 C 36.429688 -66.773438 35.140625 -67.523438 33.828125 -67.640625 L 33.828125 -68.234375 L 54.46875 -68.234375 L 54.46875 -67.640625 C 53.070312 -67.285156 52.070312 -66.457031 51.46875 -65.15625 C 50.875 -63.863281 50.578125 -62.097656 50.578125 -59.859375 L 50.578125 -8.375 C 50.578125 -6.1875 50.875 -4.429688 51.46875 -3.109375 C 52.070312 -1.796875 53.070312 -0.957031 54.46875 -0.59375 L 54.46875 0 L 37.890625 0 L 6.578125 -53.75 L 6.578125 -50.515625 C 6.578125 -47.285156 6.765625 -43.875 7.140625 -40.28125 C 7.523438 -36.6875 8.078125 -33.09375 8.796875 -29.5 C 9.515625 -25.914062 10.375 -22.476562 11.375 -19.1875 C 12.375 -15.894531 13.472656 -12.910156 14.671875 -10.234375 C 15.867188 -7.554688 17.144531 -5.378906 18.5 -3.703125 C 19.851562 -2.035156 21.269531 -1 22.75 -0.59375 L 22.75 0 L 1.5 0 L 1.5 -0.59375 C 2.894531 -0.957031 3.890625 -1.796875 4.484375 -3.109375 C 5.085938 -4.429688 5.390625 -6.1875 5.390625 -8.375 L 5.390625 -59.859375 C 5.390625 -62.097656 5.085938 -63.863281 4.484375 -65.15625 C 3.890625 -66.457031 2.894531 -67.285156 1.5 -67.640625 Z M 1.5 -67.640625 "/></g></g></g></g></g></svg>