<svg xmlns="http://www.w3.org/2000/svg" xmlns:xlink="http://www.w3.org/1999/xlink" width="449" zoomAndPan="magnify" viewBox="0 0 336.75 213" height="284" preserveAspectRatio="xMidYMid meet" version="1.0"><defs><g/><clipPath id="07a7fae935"><rect x="0" width="57" y="0" height="91"/></clipPath><clipPath id="9415a6038b"><path d="M 231 8 L 259.371094 8 L 259.371094 111 L 231 111 Z M 231 8 " clip-rule="nonzero"/></clipPath><clipPath id="70925f4e6a"><path d="M 1 85 L 22 85 L 22 102.773438 L 1 102.773438 Z M 1 85 " clip-rule="nonzero"/></clipPath><clipPath id="76f35d9afd"><rect x="0" width="29" y="0" height="103"/></clipPath><clipPath id="01899ba187"><rect x="0" width="260" y="0" height="148"/></clipPath></defs><g transform="matrix(1, 0, 0, 1, 50, 32)"><g clip-path="url(#01899ba187)"><g fill="#4a3c2f" fill-opacity="1"><g transform="translate(123.857622, 111.234641)"><g><path d="M 2.328125 -0.921875 C 4.492188 -1.484375 6.039062 -2.785156 6.96875 -4.828125 C 7.894531 -6.867188 8.359375 -9.59375 8.359375 -13 L 8.359375 -92.84375 C 8.359375 -96.3125 7.894531 -99.050781 6.96875 -101.0625 C 6.039062 -103.070312 4.492188 -104.351562 2.328125 -104.90625 L 2.328125 -105.84375 L 37.6875 -105.84375 L 58.3125 -42.421875 L 73.15625 -105.84375 L 108.90625 -105.84375 L 108.90625 -104.90625 C 106.738281 -104.351562 105.191406 -103.070312 104.265625 -101.0625 C 103.335938 -99.050781 102.875 -96.3125 102.875 -92.84375 L 102.875 -13 C 102.875 -9.59375 103.335938 -6.867188 104.265625 -4.828125 C 105.191406 -2.785156 106.738281 -1.484375 108.90625 -0.921875 L 108.90625 0 L 67.125 0 L 67.125 -0.921875 C 69.289062 -1.484375 70.835938 -2.785156 71.765625 -4.828125 C 72.691406 -6.867188 73.15625 -9.59375 73.15625 -13 L 73.15625 -96.75 L 50.5 0 L 42.25 0 L 10.21875 -98.6875 L 10.21875 -78.359375 C 10.21875 -73.347656 10.507812 -68.054688 11.09375 -62.484375 C 11.6875 -56.910156 12.535156 -51.335938 13.640625 -45.765625 C 14.753906 -40.203125 16.085938 -34.863281 17.640625 -29.75 C 19.191406 -24.644531 20.894531 -20.019531 22.75 -15.875 C 24.601562 -11.726562 26.582031 -8.351562 28.6875 -5.75 C 30.789062 -3.15625 32.988281 -1.546875 35.28125 -0.921875 L 35.28125 0 L 2.328125 0 Z M 2.328125 -0.921875 "/></g></g></g><g transform="matrix(1, 0, 0, 1, 77, 23)"><g clip-path="url(#07a7fae935)"><g fill="#4a3c2f" fill-opacity="1"><g transform="translate(0.434641, 68.182596)"><g><path d="M 5.078125 -56.390625 C 5.078125 -58.492188 4.796875 -60.15625 4.234375 -61.375 C 3.671875 -62.601562 2.726562 -63.382812 1.40625 -63.71875 L 1.40625 -64.28125 L 26.78125 -64.28125 L 26.78125 -63.71875 C 25.46875 -63.382812 24.53125 -62.601562 23.96875 -61.375 C 23.40625 -60.15625 23.125 -58.492188 23.125 -56.390625 L 23.125 -37.890625 L 33.046875 -37.890625 L 33.046875 -56.390625 C 33.046875 -58.492188 32.765625 -60.15625 32.203125 -61.375 C 31.640625 -62.601562 30.695312 -63.382812 29.375 -63.71875 L 29.375 -64.28125 L 54.75 -64.28125 L 54.75 -63.71875 C 53.4375 -63.382812 52.5 -62.601562 51.9375 -61.375 C 51.375 -60.15625 51.09375 -58.492188 51.09375 -56.390625 L 51.09375 -7.890625 C 51.09375 -5.828125 51.375 -4.175781 51.9375 -2.9375 C 52.5 -1.695312 53.4375 -0.90625 54.75 -0.5625 L 54.75 0 L 29.375 0 L 29.375 -0.5625 C 30.695312 -0.90625 31.640625 -1.695312 32.203125 -2.9375 C 32.765625 -4.175781 33.046875 -5.828125 33.046875 -7.890625 L 33.046875 -36.765625 L 23.125 -36.765625 L 23.125 -7.890625 C 23.125 -5.828125 23.40625 -4.175781 23.96875 -2.9375 C 24.53125 -1.695312 25.46875 -0.90625 26.78125 -0.5625 L 26.78125 0 L 1.40625 0 L 1.40625 -0.5625 C 2.726562 -0.90625 3.671875 -1.695312 4.234375 -2.9375 C 4.796875 -4.175781 5.078125 -5.828125 5.078125 -7.890625 Z M 5.078125 -56.390625 "/></g></g></g></g></g><g clip-path="url(#9415a6038b)"><g transform="matrix(1, 0, 0, 1, 231, 8)"><g clip-path="url(#76f35d9afd)"><g clip-path="url(#70925f4e6a)"><g fill="#4a3c2f" fill-opacity="1"><g transform="translate(21.390411, 102.645725)"><g><path d="M 0 0 L -0.171875 0 C -0.171875 -0.21875 -0.328125 -0.425781 -0.640625 -0.625 C -0.953125 -0.832031 -1.351562 -1.023438 -1.84375 -1.203125 C -2.332031 -1.390625 -2.847656 -1.554688 -3.390625 -1.703125 C -3.941406 -1.859375 -4.445312 -1.992188 -4.90625 -2.109375 C -6.082031 -2.410156 -7.164062 -2.6875 -8.15625 -2.9375 C -9.144531 -3.1875 -10.09375 -3.421875 -11 -3.640625 C -11.914062 -3.867188 -12.828125 -4.097656 -13.734375 -4.328125 C -14.648438 -4.554688 -15.609375 -4.796875 -16.609375 -5.046875 C -17.609375 -5.304688 -18.6875 -5.578125 -19.84375 -5.859375 L -19.84375 -11.625 C -18.6875 -11.925781 -17.609375 -12.203125 -16.609375 -12.453125 C -15.609375 -12.703125 -14.648438 -12.941406 -13.734375 -13.171875 C -12.828125 -13.410156 -11.914062 -13.644531 -11 -13.875 C -10.09375 -14.101562 -9.144531 -14.335938 -8.15625 -14.578125 C -7.164062 -14.828125 -6.082031 -15.097656 -4.90625 -15.390625 C -4.445312 -15.503906 -3.941406 -15.632812 -3.390625 -15.78125 C -2.847656 -15.9375 -2.332031 -16.101562 -1.84375 -16.28125 C -1.351562 -16.457031 -0.953125 -16.644531 -0.640625 -16.84375 C -0.328125 -17.050781 -0.171875 -17.269531 -0.171875 -17.5 L 0 -17.5 L 0 -8.75 L -0.171875 -8.75 C -0.492188 -9.1875 -0.960938 -9.460938 -1.578125 -9.578125 C -2.191406 -9.703125 -2.890625 -9.734375 -3.671875 -9.671875 C -4.460938 -9.609375 -5.265625 -9.488281 -6.078125 -9.3125 L -6.078125 -4.40625 C -4.734375 -4.519531 -3.5625 -4.785156 -2.5625 -5.203125 C -1.5625 -5.628906 -0.765625 -6.25 -0.171875 -7.0625 L 0 -7.0625 Z M -19.25 -6.015625 C -16.707031 -5.441406 -14.359375 -5 -12.203125 -4.6875 C -10.046875 -4.382812 -8.117188 -4.285156 -6.421875 -4.390625 L -6.421875 -9.25 C -6.878906 -9.144531 -7.320312 -9.035156 -7.75 -8.921875 C -8.1875 -8.804688 -8.601562 -8.703125 -9 -8.609375 C -9.8125 -8.398438 -10.535156 -8.210938 -11.171875 -8.046875 C -11.804688 -7.890625 -12.410156 -7.738281 -12.984375 -7.59375 C -13.566406 -7.445312 -14.160156 -7.296875 -14.765625 -7.140625 C -15.367188 -6.992188 -16.03125 -6.832031 -16.75 -6.65625 C -17.46875 -6.476562 -18.300781 -6.265625 -19.25 -6.015625 Z M -19.25 -6.015625 "/></g></g></g></g><g fill="#4a3c2f" fill-opacity="1"><g transform="translate(21.390411, 85.147319)"><g><path d="M 0 0 L -0.171875 0 C -0.171875 -0.21875 -0.328125 -0.425781 -0.640625 -0.625 C -0.953125 -0.832031 -1.351562 -1.023438 -1.84375 -1.203125 C -2.332031 -1.390625 -2.847656 -1.554688 -3.390625 -1.703125 C -3.941406 -1.859375 -4.445312 -1.992188 -4.90625 -2.109375 C -6.082031 -2.410156 -7.164062 -2.6875 -8.15625 -2.9375 C -9.144531 -3.1875 -10.09375 -3.421875 -11 -3.640625 C -11.914062 -3.867188 -12.828125 -4.097656 -13.734375 -4.328125 C -14.648438 -4.554688 -15.609375 -4.796875 -16.609375 -5.046875 C -17.609375 -5.304688 -18.6875 -5.578125 -19.84375 -5.859375 L -19.84375 -11.625 C -18.6875 -11.925781 -17.609375 -12.203125 -16.609375 -12.453125 C -15.609375 -12.703125 -14.648438 -12.941406 -13.734375 -13.171875 C -12.828125 -13.410156 -11.914062 -13.644531 -11 -13.875 C -10.09375 -14.101562 -9.144531 -14.335938 -8.15625 -14.578125 C -7.164062 -14.828125 -6.082031 -15.097656 -4.90625 -15.390625 C -4.445312 -15.503906 -3.941406 -15.632812 -3.390625 -15.78125 C -2.847656 -15.9375 -2.332031 -16.101562 -1.84375 -16.28125 C -1.351562 -16.457031 -0.953125 -16.644531 -0.640625 -16.84375 C -0.328125 -17.050781 -0.171875 -17.269531 -0.171875 -17.5 L 0 -17.5 L 0 -8.75 L -0.171875 -8.75 C -0.492188 -9.1875 -0.960938 -9.460938 -1.578125 -9.578125 C -2.191406 -9.703125 -2.890625 -9.734375 -3.671875 -9.671875 C -4.460938 -9.609375 -5.265625 -9.488281 -6.078125 -9.3125 L -6.078125 -4.40625 C -4.734375 -4.519531 -3.5625 -4.785156 -2.5625 -5.203125 C -1.5625 -5.628906 -0.765625 -6.25 -0.171875 -7.0625 L 0 -7.0625 Z M -19.25 -6.015625 C -16.707031 -5.441406 -14.359375 -5 -12.203125 -4.6875 C -10.046875 -4.382812 -8.117188 -4.285156 -6.421875 -4.390625 L -6.421875 -9.25 C -6.878906 -9.144531 -7.320312 -9.035156 -7.75 -8.921875 C -8.1875 -8.804688 -8.601562 -8.703125 -9 -8.609375 C -9.8125 -8.398438 -10.535156 -8.210938 -11.171875 -8.046875 C -11.804688 -7.890625 -12.410156 -7.738281 -12.984375 -7.59375 C -13.566406 -7.445312 -14.160156 -7.296875 -14.765625 -7.140625 C -15.367188 -6.992188 -16.03125 -6.832031 -16.75 -6.65625 C -17.46875 -6.476562 -18.300781 -6.265625 -19.25 -6.015625 Z M -19.25 -6.015625 "/></g></g></g><g fill="#4a3c2f" fill-opacity="1"><g transform="translate(21.390411, 67.648913)"><g><path d="M -19.671875 -0.4375 L -19.84375 -0.4375 L -19.84375 -10.484375 C -19.84375 -11.660156 -19.632812 -12.644531 -19.21875 -13.4375 C -18.8125 -14.226562 -18.265625 -14.820312 -17.578125 -15.21875 C -16.890625 -15.613281 -16.132812 -15.8125 -15.3125 -15.8125 C -14.457031 -15.8125 -13.742188 -15.648438 -13.171875 -15.328125 C -12.609375 -15.003906 -12.160156 -14.554688 -11.828125 -13.984375 C -11.503906 -13.421875 -11.273438 -12.765625 -11.140625 -12.015625 C -11.003906 -11.265625 -10.9375 -10.457031 -10.9375 -9.59375 C -10.726562 -10.59375 -10.410156 -11.40625 -9.984375 -12.03125 C -9.554688 -12.664062 -9.0625 -13.175781 -8.5 -13.5625 C -7.9375 -13.945312 -7.335938 -14.242188 -6.703125 -14.453125 C -6.078125 -14.671875 -5.445312 -14.847656 -4.8125 -14.984375 C -4.175781 -15.128906 -3.582031 -15.28125 -3.03125 -15.4375 C -2.476562 -15.59375 -2 -15.804688 -1.59375 -16.078125 C -1.1875 -16.347656 -0.898438 -16.722656 -0.734375 -17.203125 C -0.734375 -17.203125 -0.679688 -17.160156 -0.578125 -17.078125 C -0.472656 -17.003906 -0.347656 -16.867188 -0.203125 -16.671875 C -0.0546875 -16.484375 0.0664062 -16.21875 0.171875 -15.875 C 0.273438 -15.53125 0.328125 -15.082031 0.328125 -14.53125 C 0.328125 -13.4375 0.171875 -12.546875 -0.140625 -11.859375 C -0.453125 -11.171875 -0.867188 -10.632812 -1.390625 -10.25 C -1.921875 -9.875 -2.515625 -9.601562 -3.171875 -9.4375 C -3.828125 -9.28125 -4.507812 -9.175781 -5.21875 -9.125 C -5.925781 -9.082031 -6.609375 -9.050781 -7.265625 -9.03125 C -7.921875 -9.007812 -8.507812 -8.953125 -9.03125 -8.859375 C -9.5625 -8.765625 -9.984375 -8.585938 -10.296875 -8.328125 C -10.617188 -8.066406 -10.78125 -7.671875 -10.78125 -7.140625 L -2.4375 -7.140625 C -1.800781 -7.140625 -1.289062 -7.222656 -0.90625 -7.390625 C -0.519531 -7.566406 -0.273438 -7.859375 -0.171875 -8.265625 L 0 -8.265625 L 0 -0.4375 L -0.171875 -0.4375 C -0.273438 -0.84375 -0.519531 -1.128906 -0.90625 -1.296875 C -1.289062 -1.472656 -1.800781 -1.5625 -2.4375 -1.5625 L -17.40625 -1.5625 C -18.050781 -1.5625 -18.5625 -1.472656 -18.9375 -1.296875 C -19.320312 -1.128906 -19.566406 -0.84375 -19.671875 -0.4375 Z M -19.609375 -7.484375 L -19.609375 -7.140625 L -11.125 -7.140625 L -11.125 -7.765625 C -11.125 -8.203125 -11.253906 -8.609375 -11.515625 -8.984375 C -11.785156 -9.367188 -12.238281 -9.671875 -12.875 -9.890625 C -13.519531 -10.117188 -14.398438 -10.234375 -15.515625 -10.234375 C -16.222656 -10.234375 -16.890625 -10.148438 -17.515625 -9.984375 C -18.140625 -9.828125 -18.644531 -9.550781 -19.03125 -9.15625 C -19.414062 -8.757812 -19.609375 -8.203125 -19.609375 -7.484375 Z M -19.609375 -7.484375 "/></g></g></g><g fill="#4a3c2f" fill-opacity="1"><g transform="translate(21.390411, 50.272384)"><g><path d="M -17.40625 -1.5625 C -18.050781 -1.5625 -18.5625 -1.472656 -18.9375 -1.296875 C -19.320312 -1.128906 -19.566406 -0.84375 -19.671875 -0.4375 L -19.84375 -0.4375 L -19.84375 -8.265625 L -19.671875 -8.265625 C -19.566406 -7.859375 -19.320312 -7.566406 -18.9375 -7.390625 C -18.5625 -7.222656 -18.050781 -7.140625 -17.40625 -7.140625 L -11.703125 -7.140625 L -11.703125 -10.203125 L -17.40625 -10.203125 C -18.050781 -10.203125 -18.5625 -10.113281 -18.9375 -9.9375 C -19.320312 -9.757812 -19.566406 -9.46875 -19.671875 -9.0625 L -19.84375 -9.0625 L -19.84375 -16.90625 L -19.671875 -16.90625 C -19.566406 -16.5 -19.320312 -16.207031 -18.9375 -16.03125 C -18.5625 -15.851562 -18.050781 -15.765625 -17.40625 -15.765625 L -2.4375 -15.765625 C -1.800781 -15.765625 -1.289062 -15.851562 -0.90625 -16.03125 C -0.519531 -16.207031 -0.273438 -16.5 -0.171875 -16.90625 L 0 -16.90625 L 0 -9.0625 L -0.171875 -9.0625 C -0.273438 -9.46875 -0.519531 -9.757812 -0.90625 -9.9375 C -1.289062 -10.113281 -1.800781 -10.203125 -2.4375 -10.203125 L -11.34375 -10.203125 L -11.34375 -7.140625 L -2.4375 -7.140625 C -1.800781 -7.140625 -1.289062 -7.222656 -0.90625 -7.390625 C -0.519531 -7.566406 -0.273438 -7.859375 -0.171875 -8.265625 L 0 -8.265625 L 0 -0.4375 L -0.171875 -0.4375 C -0.273438 -0.84375 -0.519531 -1.128906 -0.90625 -1.296875 C -1.289062 -1.472656 -1.800781 -1.5625 -2.4375 -1.5625 Z M -17.40625 -1.5625 "/></g></g></g><g fill="#4a3c2f" fill-opacity="1"><g transform="translate(21.390411, 32.930684)"><g><path d="M -19.84375 -0.4375 L -19.84375 -8.265625 L -19.671875 -8.265625 C -19.566406 -7.859375 -19.320312 -7.566406 -18.9375 -7.390625 C -18.5625 -7.222656 -18.050781 -7.140625 -17.40625 -7.140625 L -2.953125 -7.140625 C -2.703125 -7.140625 -2.421875 -7.144531 -2.109375 -7.15625 C -1.796875 -7.164062 -1.488281 -7.207031 -1.1875 -7.28125 C -0.894531 -7.351562 -0.648438 -7.484375 -0.453125 -7.671875 C -0.265625 -7.859375 -0.171875 -8.128906 -0.171875 -8.484375 C -0.171875 -8.847656 -0.257812 -9.125 -0.4375 -9.3125 C -0.625 -9.507812 -0.859375 -9.644531 -1.140625 -9.71875 C -1.429688 -9.789062 -1.738281 -9.832031 -2.0625 -9.84375 C -2.382812 -9.851562 -2.679688 -9.859375 -2.953125 -9.859375 L -17.40625 -9.859375 C -18.050781 -9.859375 -18.5625 -9.769531 -18.9375 -9.59375 C -19.320312 -9.414062 -19.566406 -9.125 -19.671875 -8.71875 L -19.84375 -8.71875 L -19.84375 -16.546875 L -19.671875 -16.546875 C -19.566406 -16.140625 -19.320312 -15.847656 -18.9375 -15.671875 C -18.5625 -15.503906 -18.050781 -15.421875 -17.40625 -15.421875 L -6.296875 -15.421875 C -4.910156 -15.421875 -3.722656 -15.1875 -2.734375 -14.71875 C -1.742188 -14.25 -0.984375 -13.503906 -0.453125 -12.484375 C 0.0664062 -11.472656 0.328125 -10.144531 0.328125 -8.5 C 0.328125 -6.863281 0.0664062 -5.53125 -0.453125 -4.5 C -0.984375 -3.476562 -1.742188 -2.734375 -2.734375 -2.265625 C -3.722656 -1.796875 -4.910156 -1.5625 -6.296875 -1.5625 L -17.40625 -1.5625 C -18.050781 -1.5625 -18.5625 -1.472656 -18.9375 -1.296875 C -19.320312 -1.128906 -19.566406 -0.84375 -19.671875 -0.4375 Z M -19.84375 -0.4375 "/></g></g></g><g fill="#4a3c2f" fill-opacity="1"><g transform="translate(21.390411, 15.937212)"><g><path d="M -2.5 -10.265625 C -3.269531 -10.265625 -3.929688 -10.128906 -4.484375 -9.859375 C -5.046875 -9.597656 -5.535156 -9.238281 -5.953125 -8.78125 C -6.367188 -8.332031 -6.75 -7.828125 -7.09375 -7.265625 C -7.4375 -6.703125 -7.769531 -6.117188 -8.09375 -5.515625 C -8.425781 -4.921875 -8.78125 -4.34375 -9.15625 -3.78125 C -9.539062 -3.21875 -9.984375 -2.707031 -10.484375 -2.25 C -10.984375 -1.800781 -11.570312 -1.441406 -12.25 -1.171875 C -12.925781 -0.910156 -13.726562 -0.78125 -14.65625 -0.78125 C -15.914062 -0.78125 -16.953125 -1.070312 -17.765625 -1.65625 C -18.578125 -2.238281 -19.179688 -3.023438 -19.578125 -4.015625 C -19.972656 -5.015625 -20.171875 -6.132812 -20.171875 -7.375 C -20.171875 -8 -20.144531 -8.566406 -20.09375 -9.078125 C -20.039062 -9.597656 -19.984375 -10.113281 -19.921875 -10.625 C -19.867188 -11.132812 -19.84375 -11.703125 -19.84375 -12.328125 C -19.84375 -12.492188 -19.867188 -12.675781 -19.921875 -12.875 C -19.972656 -13.082031 -20.054688 -13.234375 -20.171875 -13.328125 L -20.171875 -13.5 L -13.859375 -13.5 L -13.859375 -13.328125 C -14.328125 -13.273438 -14.832031 -13.117188 -15.375 -12.859375 C -15.925781 -12.609375 -16.460938 -12.28125 -16.984375 -11.875 C -17.503906 -11.476562 -17.984375 -11.03125 -18.421875 -10.53125 C -18.859375 -10.03125 -19.203125 -9.507812 -19.453125 -8.96875 C -19.710938 -8.425781 -19.84375 -7.890625 -19.84375 -7.359375 C -19.84375 -6.703125 -19.632812 -6.144531 -19.21875 -5.6875 C -18.8125 -5.226562 -18.226562 -5 -17.46875 -5 C -16.738281 -5 -16.109375 -5.128906 -15.578125 -5.390625 C -15.046875 -5.660156 -14.578125 -6.023438 -14.171875 -6.484375 C -13.773438 -6.941406 -13.410156 -7.453125 -13.078125 -8.015625 C -12.742188 -8.578125 -12.414062 -9.160156 -12.09375 -9.765625 C -11.78125 -10.378906 -11.4375 -10.96875 -11.0625 -11.53125 C -10.6875 -12.09375 -10.253906 -12.601562 -9.765625 -13.0625 C -9.285156 -13.519531 -8.710938 -13.878906 -8.046875 -14.140625 C -7.390625 -14.410156 -6.617188 -14.546875 -5.734375 -14.546875 C -4.867188 -14.546875 -4.066406 -14.378906 -3.328125 -14.046875 C -2.597656 -13.710938 -1.957031 -13.238281 -1.40625 -12.625 C -0.863281 -12.019531 -0.4375 -11.304688 -0.125 -10.484375 C 0.175781 -9.660156 0.328125 -8.757812 0.328125 -7.78125 C 0.328125 -6.832031 0.253906 -5.96875 0.109375 -5.1875 C -0.0351562 -4.414062 -0.257812 -3.691406 -0.5625 -3.015625 C -0.875 -2.335938 -1.273438 -1.660156 -1.765625 -0.984375 L -8.34375 -0.984375 L -8.34375 -1.203125 C -8.09375 -1.203125 -7.71875 -1.28125 -7.21875 -1.4375 C -6.71875 -1.59375 -6.15625 -1.816406 -5.53125 -2.109375 C -4.90625 -2.398438 -4.273438 -2.742188 -3.640625 -3.140625 C -3.003906 -3.546875 -2.410156 -3.988281 -1.859375 -4.46875 C -1.316406 -4.957031 -0.875 -5.476562 -0.53125 -6.03125 C -0.195312 -6.582031 -0.03125 -7.15625 -0.03125 -7.75 C -0.03125 -8.394531 -0.140625 -8.898438 -0.359375 -9.265625 C -0.585938 -9.628906 -0.882812 -9.882812 -1.25 -10.03125 C -1.625 -10.1875 -2.039062 -10.265625 -2.5 -10.265625 Z M -2.5 -10.265625 "/></g></g></g></g></g></g><g fill="#4a3c2f" fill-opacity="1"><g transform="translate(0.927407, 111.234641)"><g><path d="M 2.328125 -104.90625 L 2.328125 -105.84375 L 32.59375 -105.84375 L 76.59375 -30.359375 L 76.59375 -36.390625 C 76.59375 -40.972656 76.28125 -45.800781 75.65625 -50.875 C 75.039062 -55.945312 74.175781 -61.019531 73.0625 -66.09375 C 71.945312 -71.175781 70.644531 -75.988281 69.15625 -80.53125 C 67.675781 -85.082031 66.023438 -89.171875 64.203125 -92.796875 C 62.378906 -96.421875 60.472656 -99.300781 58.484375 -101.4375 C 56.503906 -103.570312 54.492188 -104.726562 52.453125 -104.90625 L 52.453125 -105.84375 L 84.484375 -105.84375 L 84.484375 -104.90625 C 82.316406 -104.351562 80.769531 -103.070312 79.84375 -101.0625 C 78.914062 -99.050781 78.453125 -96.3125 78.453125 -92.84375 L 78.453125 -13 C 78.453125 -9.59375 78.914062 -6.867188 79.84375 -4.828125 C 80.769531 -2.785156 82.316406 -1.484375 84.484375 -0.921875 L 84.484375 0 L 58.765625 0 L 10.21875 -83.375 L 10.21875 -78.359375 C 10.21875 -73.347656 10.507812 -68.054688 11.09375 -62.484375 C 11.6875 -56.910156 12.535156 -51.335938 13.640625 -45.765625 C 14.753906 -40.203125 16.085938 -34.863281 17.640625 -29.75 C 19.191406 -24.644531 20.894531 -20.019531 22.75 -15.875 C 24.601562 -11.726562 26.582031 -8.351562 28.6875 -5.75 C 30.789062 -3.15625 32.988281 -1.546875 35.28125 -0.921875 L 35.28125 0 L 2.328125 0 L 2.328125 -0.921875 C 4.492188 -1.484375 6.039062 -2.785156 6.96875 -4.828125 C 7.894531 -6.867188 8.359375 -9.59375 8.359375 -13 L 8.359375 -92.84375 C 8.359375 -96.3125 7.894531 -99.050781 6.96875 -101.0625 C 6.039062 -103.070312 4.492188 -104.351562 2.328125 -104.90625 Z M 2.328125 -104.90625 "/></g></g></g></g></g></svg>